<?xml version="1.0" encoding="UTF-8"?>
<svg width="28px" height="28px" viewBox="0 0 28 28" version="1.1" xmlns="http://www.w3.org/2000/svg" xmlns:xlink="http://www.w3.org/1999/xlink">
    <!-- Generator: Sketch 52.5 (67469) - http://www.bohemiancoding.com/sketch -->
    <title>birthday-cake</title>
    <desc>Created with Sketch.</desc>
    <g id="Symbols" stroke="none" stroke-width="1" fill="none" fill-rule="evenodd">
        <g id="birthday-cake" transform="translate(-5.000000, -3.000000)" fill="#000000">
            <g transform="translate(5.000000, 3.000000)">
                <path d="M27.5395859,24.4817891 L25.9866797,24.4817891 L25.9866797,19.0952344 C25.9866797,17.8895391 25.0058047,16.9086641 23.8001094,16.9086641 L23.1259766,16.9086641 L23.1259766,11.2926953 C23.1259766,10.2135469 22.2479687,9.33553906 21.1688203,9.33553906 L15.7130859,9.33553906 L15.7130859,4.82075781 C15.7130859,4.56651563 15.5069687,4.36034375 15.2527266,4.36034375 L14.4603594,4.36034375 L14.4603594,3.67259375 C15.06925,3.47741406 15.5113438,2.90603906 15.5113438,2.23316406 C15.5113438,1.52775 14.6135938,0.499078125 14.3384609,0.200648438 C14.2512891,0.106039063 14.1285703,0.05228125 14,0.05228125 C13.871375,0.05228125 13.7487109,0.106039063 13.6615391,0.200648438 C13.3864063,0.499078125 12.4886563,1.52775 12.4886563,2.23316406 C12.4886563,2.90598438 12.93075,3.47735938 13.5396406,3.67259375 L13.5396406,4.36039844 L12.7472734,4.36039844 C12.4930312,4.36039844 12.2868594,4.56651563 12.2868594,4.8208125 L12.2868594,9.33559375 L6.831125,9.33559375 C5.75197656,9.33559375 4.87396875,10.2136016 4.87396875,11.29275 L4.87396875,15.3433984 C4.87396875,15.5976406 5.08008594,15.8038125 5.33432812,15.8038125 C5.58857031,15.8038125 5.79474219,15.5976953 5.79474219,15.3433984 L5.79474219,11.29275 C5.79474219,10.7213203 6.25969531,10.2563672 6.831125,10.2563672 L21.1688203,10.2563672 C21.74025,10.2563672 22.2052031,10.7213203 22.2052031,11.29275 L22.2052031,16.9087187 L5.3344375,16.9087187 L4.19983594,16.9087187 C2.99408594,16.9087187 2.01326562,17.8895937 2.01326562,19.0952891 L2.01326562,22.8732109 C2.01326562,23.1274531 2.21938281,23.333625 2.473625,23.333625 C2.72786719,23.333625 2.93403906,23.1275078 2.93403906,22.8732109 L2.93403906,19.0952891 C2.93403906,18.3972578 3.50185937,17.8294922 4.19983594,17.8294922 L5.33432812,17.8294922 L22.6655078,17.8294922 L23.8,17.8294922 C24.4980313,17.8294922 25.0657969,18.3973125 25.0657969,19.0952891 L25.0657969,24.4818438 L2.473625,24.4818438 L0.460414063,24.4818438 C0.206171875,24.4818438 0,24.6879609 0,24.9422578 C0,26.5994531 1.34826563,27.9477187 3.00546094,27.9477187 L24.9945391,27.9477187 C26.6517344,27.9477187 28,26.5994531 28,24.9422578 C28,24.6879063 27.7938828,24.4817891 27.5395859,24.4817891 Z M13.4094297,2.23310938 C13.4094297,2.07467969 13.6644922,1.6498125 14,1.22325 C14.3355078,1.6498125 14.5905703,2.07467969 14.5905703,2.23310938 C14.5905703,2.55877344 14.3256094,2.82367969 14,2.82367969 C13.6743359,2.82367969 13.4094297,2.55877344 13.4094297,2.23310938 Z M14.7923125,9.33553906 L13.2076328,9.33553906 L13.2076328,5.28111719 L14.7923125,5.28111719 L14.7923125,9.33553906 Z M24.9945391,27.0268906 L3.00546094,27.0268906 C2.01408594,27.0268906 1.182125,26.3313203 0.972015625,25.4025625 L2.47367969,25.4025625 L25.5263203,25.4025625 L27.0279844,25.4025625 C26.817875,26.3313203 25.9859141,27.0268906 24.9945391,27.0268906 Z" id="Shape" fill-rule="nonzero"></path>
                <path d="M20.6565078,11.6010234 C19.9883906,11.5901406 19.5296172,12.0421328 19.1605859,12.4060781 C18.8264453,12.7355156 18.6050156,12.9344141 18.3661953,12.9279609 C18.1418125,12.9213984 17.9704219,12.7270391 17.7094531,12.4105625 C17.4035859,12.0396172 17.0227969,11.578 16.3697188,11.5588594 C15.7247891,11.5396641 15.2998672,11.9611953 14.9251484,12.3327422 C14.5784844,12.6765078 14.3472656,12.8851953 14.0601016,12.8855234 C14.0599375,12.8855234 14.0597734,12.8855234 14.0596094,12.8855234 C13.7763281,12.8855234 13.5523281,12.6763984 13.2173672,12.3320312 C12.8643047,11.969125 12.4254375,11.5180625 11.7587969,11.5180625 C11.7546406,11.5180625 11.7503203,11.5180625 11.7461641,11.5181172 C11.0502656,11.5240781 10.6023203,12.0145156 10.2423672,12.4086484 C9.919875,12.7618203 9.7059375,12.9764141 9.45754687,12.9764141 C9.45710937,12.9764141 9.45672656,12.9764141 9.45634375,12.9764141 C9.20757031,12.9757578 8.99866406,12.7607812 8.68410156,12.4069531 C8.34175781,12.0217891 7.916125,11.5427812 7.25396875,11.5427812 C7.25145312,11.5427812 7.24888281,11.5427812 7.2463125,11.5427812 C6.99207031,11.5442031 6.78710156,11.7514687 6.78852344,12.0057656 C6.78994531,12.2591875 6.99573437,12.4635547 7.24882812,12.4635547 C7.25041406,12.4636094 7.252,12.4636094 7.25364062,12.4636094 C7.48578906,12.4636094 7.68917187,12.6735547 7.99596875,13.0186875 C8.343125,13.4092656 8.77504687,13.8953281 9.45388281,13.8972969 C9.45519531,13.8972969 9.45645312,13.8972969 9.45782031,13.8972969 C10.1300391,13.8972969 10.5693437,13.416375 10.9224062,13.0297344 C11.2566562,12.6637656 11.4794531,12.4413516 11.7541484,12.4389453 C12.0212422,12.4379063 12.2332109,12.6409063 12.5575078,12.9742266 C12.9182812,13.3450078 13.3671016,13.8063516 14.0596641,13.8063516 C14.0601016,13.8063516 14.0606484,13.8063516 14.0610859,13.8063516 C14.7476875,13.80575 15.2056953,13.3515703 15.5736875,12.9866406 C15.8910937,12.6719141 16.1021875,12.4791953 16.3310547,12.4791953 C16.3350469,12.4791953 16.3390391,12.47925 16.3429766,12.4793047 C16.5670859,12.4858672 16.7383672,12.6801172 16.9992266,12.9964844 C17.3052578,13.3674844 17.6859922,13.8292109 18.3393438,13.8484063 C18.9914922,13.8690781 19.4432656,13.42075 19.8073203,13.0617813 C20.1511953,12.7226641 20.3785313,12.5157266 20.6404844,12.5217969 C20.8969688,12.5252969 21.1045078,12.3238281 21.1089375,12.0695859 C21.1131484,11.8151797 20.9108047,11.6055078 20.6565078,11.6010234 Z" id="Path"></path>
                <path d="M23.7699766,19.2233672 C23.0823359,19.2019844 22.6250391,19.6570391 22.2212266,20.0575156 C21.8884531,20.3874453 21.6010156,20.6726406 21.2478438,20.6749375 C20.97375,20.6689766 20.7772578,20.4648281 20.4803047,20.1328203 C20.1410781,19.7537812 19.7189453,19.2819922 19.0072422,19.2694687 C18.9982188,19.2693594 18.9893047,19.2691953 18.9803359,19.2691953 C18.2824141,19.2691953 17.7945469,19.7502813 17.4015625,20.1377969 C17.0792344,20.4556406 16.8012031,20.7291875 16.5006406,20.7213125 C16.2364453,20.7136016 16.0432344,20.495125 15.7498906,20.1394375 C15.4207266,19.7403281 15.0111172,19.2436016 14.3162031,19.2232578 C13.6291641,19.201875 13.1712109,19.6569297 12.7674531,20.0574062 C12.4335859,20.3885391 12.1452188,20.6744453 11.7904063,20.6748281 C11.7902422,20.6748281 11.7899688,20.6748281 11.7898047,20.6748281 C11.4628281,20.6748281 11.2117031,20.4409844 10.8371484,20.0561484 C10.4565234,19.6649141 9.98342188,19.1786875 9.27221094,19.1786875 C9.26778125,19.1786875 9.26324219,19.1786875 9.25886719,19.1787422 C8.516375,19.1850859 8.03332031,19.7140234 7.64509375,20.1390547 C7.28421094,20.5342266 7.04396875,20.7743047 6.75434375,20.7743047 C6.75385156,20.7743047 6.75335938,20.7743047 6.75286719,20.7743047 C6.46258594,20.7734844 6.22786719,20.5328047 5.87567969,20.1366484 C5.50544531,19.7200937 5.04617969,19.2037891 4.33507813,19.2056484 C4.08083594,19.2070703 3.87586719,19.4143359 3.87728906,19.6686328 C3.87871094,19.922 4.0845,20.1264219 4.33759375,20.1264219 C4.33863281,20.1265312 4.33950781,20.1265312 4.34038281,20.1265312 C4.61502344,20.1225937 4.84274219,20.3604844 5.18754688,20.7484375 C5.56160938,21.1693125 6.02716406,21.6931641 6.75035156,21.6951875 C6.75182813,21.6951875 6.75319531,21.6951875 6.75472656,21.6951875 C7.47091406,21.6951328 7.92471094,21.1984062 8.32507813,20.7600312 C8.69870313,20.3509141 8.94857031,20.1023047 9.26679688,20.0995156 C9.26849219,20.0995156 9.27024219,20.0995156 9.27188281,20.0995156 C9.57271875,20.0995156 9.81514844,20.3261406 10.1772344,20.6983437 C10.5662266,21.0982187 11.0503203,21.5957109 11.78975,21.5957109 C11.7902422,21.5957109 11.7907344,21.5957109 11.7912266,21.5957109 C12.5246406,21.5950547 13.0187422,21.1050547 13.4157734,20.7113594 C13.7772578,20.3528828 14.0148203,20.1364297 14.2892969,20.1437031 C14.5532188,20.1514141 14.7463203,20.3697812 15.0395547,20.7253047 C15.3687734,21.1244687 15.7784922,21.6213594 16.473625,21.6417031 C17.1679375,21.66325 17.6351875,21.2005937 18.0480781,20.7934453 C18.3794844,20.4666328 18.6647344,20.1824766 18.9909453,20.1900781 C19.2857656,20.1952187 19.4882188,20.405 19.7940313,20.7467969 C20.1282266,21.1203125 20.5441797,21.5851562 21.2375625,21.5955469 C21.2400234,21.5955469 21.2424844,21.5956016 21.2449453,21.5956016 C21.9783594,21.5949453 22.4724609,21.1049453 22.8694922,20.71125 C23.2310313,20.3527734 23.4694141,20.1371953 23.7430156,20.1435937 C23.9975313,20.1514141 24.2092266,19.9510391 24.2166641,19.6969062 C24.2241016,19.4428281 24.0241094,19.2308047 23.7699766,19.2233672 Z" id="Path"></path>
            </g>
        </g>
    </g>
</svg>