<?xml version="1.0" encoding="UTF-8"?>
<svg width="28px" height="28px" viewBox="0 0 28 28" version="1.1" xmlns="http://www.w3.org/2000/svg" xmlns:xlink="http://www.w3.org/1999/xlink">
    <!-- Generator: Sketch 52.5 (67469) - http://www.bohemiancoding.com/sketch -->
    <title>coffee-cup</title>
    <desc>Created with Sketch.</desc>
    <g id="Symbols" stroke="none" stroke-width="1" fill="none" fill-rule="evenodd">
        <g id="coffee-cup" transform="translate(-5.000000, -3.000000)" fill="#000000">
            <g transform="translate(5.000000, 3.000000)">
                <path d="M27.453125,11.2929688 L22.96875,11.2929688 L22.96875,10.1353984 C22.96875,9.83335938 22.7238594,9.58852344 22.421875,9.58852344 L10.609375,9.58852344 C10.3073906,9.58852344 10.0625,9.83335938 10.0625,10.1353984 C10.0625,10.4374375 10.3073906,10.6822734 10.609375,10.6822734 L21.875,10.6822734 L21.875,14.8749453 C21.875,18.5580391 19.9086016,21.9811484 16.7333906,23.8436953 L6.23535937,23.8436953 C3.06014844,21.9812031 1.09375,18.5580391 1.09375,14.875 L1.09375,10.6823281 L4.7578125,10.6823281 C5.05979687,10.6823281 5.3046875,10.4374922 5.3046875,10.1354531 C5.3046875,9.83341406 5.05979687,9.58857813 4.7578125,9.58857813 L0.546875,9.58857813 C0.244890625,9.58857813 0,9.83341406 0,10.1354531 L0,14.875 C0,16.9421875 0.555625,18.969125 1.60682813,20.7365703 C2.31574219,21.9285938 3.23558594,22.9812188 4.31276562,23.84375 L0.546875,23.84375 C0.244890625,23.84375 0,24.0885859 0,24.390625 C0,26.3808672 1.61913281,28 3.609375,28 L20.671875,28 C22.6621172,28 24.28125,26.3808672 24.28125,24.390625 C24.28125,24.0885859 24.0363594,23.84375 23.734375,23.84375 L18.6559844,23.84375 C19.6474141,23.0499062 20.5050781,22.0946797 21.188125,21.0182109 L22.7317891,21.0182109 C25.6366797,21.0182109 28,18.6548906 28,15.75 L28,11.8398438 C28,11.5378047 27.7551641,11.2929688 27.453125,11.2929688 Z M23.1276172,24.9375 C22.8772578,26.0625312 21.8712266,26.90625 20.671875,26.90625 L3.609375,26.90625 C2.41002344,26.90625 1.40404687,26.0625312 1.15363281,24.9375 L6.08885156,24.9375 L16.8798984,24.9375 L23.1276172,24.9375 Z M22.96875,14.875 L22.96875,14.5742188 L24.71875,14.5742188 L24.71875,15.75 C24.71875,16.8456094 23.8273984,17.7369609 22.7317891,17.7369609 L22.6075937,17.7369609 C22.8463047,16.8069453 22.96875,15.8454297 22.96875,14.875 Z M26.90625,15.75 C26.90625,18.0517969 25.0335859,19.9244609 22.7317891,19.9244609 L21.8010078,19.9244609 C21.975625,19.5678438 22.1315938,19.20275 22.267875,18.8307109 L22.7317891,18.8307109 C24.4305469,18.8307109 25.8125,17.4487031 25.8125,15.75 L25.8125,14.0273438 C25.8125,13.7253047 25.5676094,13.4804688 25.265625,13.4804688 L22.96875,13.4804688 L22.96875,12.3867188 L26.90625,12.3867188 L26.90625,15.75 Z" id="Shape" fill-rule="nonzero"></path>
                <path d="M12.0065859,3.02657031 L11.7220469,2.66929687 C11.3043438,2.14495312 11.3037422,1.41197656 11.7205703,0.886867187 C11.9083672,0.650289062 11.8687734,0.306304687 11.6321953,0.1185625 C11.3955625,-0.0692890625 11.0516328,-0.029640625 10.8638359,0.2069375 C10.1287266,1.133125 10.1298203,2.42588281 10.8665156,3.35075781 L11.1510547,3.70803125 C11.6968906,4.39326562 11.6977109,5.35111719 11.1530234,6.03739062 L10.8614297,6.40478125 C10.6736328,6.64135937 10.7132266,6.98534375 10.9498047,7.17308594 C11.050375,7.252875 11.1703047,7.29164844 11.2894141,7.29164844 C11.4505234,7.29164844 11.6101563,7.22077344 11.7181641,7.08471094 L12.0097578,6.71732031 C12.8727266,5.63002344 12.8714688,4.11233594 12.0065859,3.02657031 Z" id="Path"></path>
                <path d="M15.0378594,4.25616406 L14.7533203,3.89894531 C14.3356172,3.37454688 14.3350156,2.64157031 14.7518438,2.11646094 C14.9396406,1.87988281 14.9000469,1.53589844 14.6634688,1.34815625 C14.4268359,1.16030469 14.0829063,1.19995312 13.8951094,1.43653125 C13.16,2.36271875 13.1610938,3.65547656 13.8977891,4.58040625 L14.1823281,4.93767969 C14.7281094,5.62296875 14.7289297,6.580875 14.1842422,7.26709375 L13.8927031,7.63442969 C13.7049063,7.87100781 13.7445,8.21499219 13.9810781,8.40273438 C14.0816484,8.48252344 14.2015781,8.52124219 14.3206875,8.52124219 C14.4817969,8.52124219 14.6414844,8.4503125 14.7494375,8.31430469 L15.0409219,7.94696875 C15.9039453,6.85972656 15.9026875,5.34203906 15.0378594,4.25616406 Z" id="Path"></path>
                <path d="M8.9753125,4.25621875 L8.69077344,3.899 C8.27307031,3.37465625 8.27246875,2.641625 8.68924219,2.11651562 C8.87703906,1.8799375 8.83744531,1.53595313 8.60086719,1.34815625 C8.36423437,1.16035938 8.02030469,1.2000625 7.83250781,1.43653125 C7.09745312,2.36271875 7.09854687,3.65553125 7.83524219,4.58040625 L8.11978125,4.93767969 C8.6655625,5.62296875 8.66638281,6.580875 8.12175,7.26703906 L7.83015625,7.634375 C7.64235937,7.87095313 7.68189844,8.2149375 7.91847656,8.40273438 C8.01904688,8.48252344 8.13892188,8.52129688 8.25808594,8.52129688 C8.41919531,8.52129688 8.57882813,8.45042188 8.68678125,8.31441406 L8.97842969,7.94702344 C9.84139844,6.85978125 9.84014062,5.34209375 8.9753125,4.25621875 Z" id="Path"></path>
                <path d="M8.2184375,9.74859375 C8.11671875,9.646875 7.975625,9.58835937 7.83179688,9.58835937 C7.68796875,9.58835937 7.546875,9.646875 7.44515625,9.74859375 C7.34349219,9.85085938 7.28492188,9.99140625 7.28492188,10.1352344 C7.28492188,10.2790625 7.3434375,10.4201562 7.44515625,10.5224219 C7.546875,10.6241406 7.68796875,10.6821094 7.83179688,10.6821094 C7.975625,10.6821094 8.11671875,10.6241406 8.2184375,10.5224219 C8.32064844,10.4201562 8.37867188,10.2796094 8.37867188,10.1352344 C8.37867188,9.99140625 8.32064844,9.8503125 8.2184375,9.74859375 Z" id="Path"></path>
                <path d="M19.796875,14.328125 C19.4948906,14.328125 19.25,14.5729609 19.25,14.875 C19.25,16.9049453 18.426625,18.8998906 16.9909688,20.3482891 C16.7783438,20.5627734 16.7799297,20.9090547 16.9944141,21.1216797 C17.1010547,21.2273906 17.2402344,21.2801641 17.3794141,21.2801641 C17.5201797,21.2801094 17.6609453,21.2260781 17.7678594,21.1181797 C19.404875,19.4666172 20.34375,17.1910703 20.34375,14.875 C20.34375,14.5729609 20.0988594,14.328125 19.796875,14.328125 Z" id="Path"></path>
                <path d="M16.0718359,21.8326172 C15.9234141,21.5695156 15.589875,21.4766016 15.3268281,21.6249687 L15.3143594,21.6320234 C15.0512578,21.7804453 14.9583437,22.1139844 15.1067109,22.3770312 C15.2072266,22.5552031 15.3925625,22.6553359 15.5835312,22.6553359 C15.6745312,22.6553359 15.7668437,22.6325312 15.8517187,22.5846797 L15.8641875,22.577625 C16.1272891,22.4292031 16.2202031,22.0956641 16.0718359,21.8326172 Z" id="Path"></path>
            </g>
        </g>
    </g>
</svg>