<?xml version="1.0" encoding="UTF-8"?>
<svg width="28px" height="23px" viewBox="0 0 28 23" version="1.1" xmlns="http://www.w3.org/2000/svg" xmlns:xlink="http://www.w3.org/1999/xlink">
    <!-- Generator: Sketch 52.5 (67469) - http://www.bohemiancoding.com/sketch -->
    <title>hamburger</title>
    <desc>Created with Sketch.</desc>
    <g id="Symbols" stroke="none" stroke-width="1" fill="none" fill-rule="evenodd">
        <g id="hamburger" transform="translate(-4.000000, -5.000000)" fill="#000000">
            <g transform="translate(4.000000, 5.000000)">
                <path d="M20.9491953,5.63653333 C20.7356406,5.42274286 20.3893594,5.42274286 20.17575,5.63653333 L19.082,6.73177143 C18.8684453,6.94561667 18.8684453,7.29236905 19.082,7.50626905 C19.2956641,7.72016905 19.6418906,7.72011429 19.8554453,7.50626905 L20.9491953,6.41103095 C21.16275,6.19718571 21.16275,5.85043333 20.9491953,5.63653333 Z" id="Path"></path>
                <path d="M7.82419531,5.63653333 C7.61064063,5.42274286 7.26435938,5.42274286 7.05075,5.63653333 L5.957,6.73177143 C5.74344531,6.94561667 5.74344531,7.29236905 5.957,7.50626905 C6.17066406,7.72016905 6.51689063,7.72011429 6.73044531,7.50626905 L7.82419531,6.41103095 C8.03775,6.19718571 8.03775,5.85043333 7.82419531,5.63653333 Z" id="Path"></path>
                <path d="M18.2148203,3.44605714 C18.0012656,3.23226667 17.6549844,3.23226667 17.441375,3.44605714 L16.347625,4.54129524 C16.1340703,4.75514048 16.1340703,5.10189286 16.347625,5.31579286 C16.5612891,5.52969286 16.9075156,5.5296381 17.1210703,5.31579286 L18.2148203,4.22055476 C18.428375,4.00670952 18.428375,3.65995714 18.2148203,3.44605714 Z" id="Path"></path>
                <path d="M11.6523203,3.44605714 C11.4387656,3.23226667 11.0924844,3.23226667 10.878875,3.44605714 L9.785125,4.54129524 C9.57157031,4.75514048 9.57157031,5.10189286 9.785125,5.31579286 C9.99878906,5.52969286 10.3450156,5.5296381 10.5585703,5.31579286 L11.6523203,4.22055476 C11.865875,4.00670952 11.865875,3.65995714 11.6523203,3.44605714 Z" id="Path"></path>
                <path d="M14.3866953,5.63653333 C14.1731406,5.42274286 13.8268594,5.42274286 13.61325,5.63653333 L12.5195,6.73177143 C12.3059453,6.94561667 12.3059453,7.29236905 12.5195,7.50626905 C12.7331641,7.72016905 13.0793906,7.72011429 13.2929453,7.50626905 L14.3866953,6.41103095 C14.60025,6.19718571 14.60025,5.85043333 14.3866953,5.63653333 Z" id="Path"></path>
                <path d="M28,16.9761905 C28,16.070319 27.2640156,15.3333333 26.359375,15.3333333 L25.8125,15.3333333 L25.8125,13.5683571 C25.8350313,13.5487524 25.858,13.529969 25.8801484,13.5097619 C26.235125,13.1857357 26.9765781,12.9785714 27.4600156,12.9724381 C27.762,12.9686595 28.0037734,12.720369 27.9999453,12.4179738 C27.9961719,12.1179333 27.7521016,11.8772548 27.4532344,11.8772548 C27.4509375,11.8772548 27.4485312,11.8772548 27.4462344,11.8773095 C26.9769609,11.8832238 26.3534688,12.0079714 25.8125,12.2640929 L25.8125,10.828619 C26.478375,10.5557405 26.9210703,9.86924524 26.8260234,9.10717857 C26.1809297,3.91525714 21.7484531,0 16.515625,0 L11.484375,0 C6.25154687,0 1.81907031,3.91525714 1.17397656,9.10695952 C1.07920313,9.86678095 1.51889063,10.5547 2.1875,10.8286738 L2.1875,12.2399429 C1.64450781,11.9936238 1.01953906,11.8704095 0.539710938,11.8773095 C0.237726563,11.8812524 -0.0038828125,12.1296524 5.46875e-05,12.4321024 C0.0039921875,12.7320881 0.2480625,12.9724929 0.546765625,12.9724929 C0.549171875,12.9724929 0.551632813,12.9724929 0.55409375,12.9724381 C1.04310938,12.9649357 1.80217188,13.1695262 2.17240625,13.507681 C2.17732813,13.5122262 2.18257813,13.5164976 2.18755469,13.5209881 L2.18755469,15.3333333 L1.640625,15.3333333 C0.734234375,15.3333333 0,16.0684571 0,16.9761905 C0,17.7902262 0.594453125,18.4675214 1.37145312,18.5965405 C1.24364844,18.9343667 1.23446094,19.3034619 1.35296875,19.6541571 C2.03076562,21.6553762 3.90452344,23 6.015625,23 L21.984375,23 C24.0954766,23 25.9692344,21.6553762 26.6471953,19.6538286 C26.7655938,19.3034619 26.7564063,18.934531 26.6286563,18.5967595 C27.391,18.4712452 28,17.8069286 28,16.9761905 Z M2.25930469,9.24238571 C2.83647656,4.59775476 6.80235938,1.0952381 11.484375,1.0952381 L16.515625,1.0952381 C21.1976406,1.0952381 25.1635234,4.59775476 25.7406953,9.24265952 C25.7801797,9.55912857 25.5335938,9.83469048 25.2290391,9.85511667 C25.2254297,9.85533571 25.2218203,9.85566429 25.2182109,9.85599286 C25.2088594,9.85681429 25.1995078,9.85714286 25.1901563,9.85714286 L2.80984375,9.85714286 C2.48773438,9.85714286 2.218125,9.57314762 2.25930469,9.24238571 Z M22.5989531,12.700381 C21.3971953,11.6030071 19.7824375,11.6030071 18.5806797,12.700381 C17.7959688,13.4168857 16.8211094,13.4168857 16.0364531,12.700381 C14.8346953,11.6030071 13.2199375,11.6030071 12.0181797,12.700381 C11.2334687,13.4168857 10.2586094,13.4168857 9.47395312,12.700381 C8.27219531,11.6030619 6.6574375,11.6029524 5.45557031,12.7004905 C4.79051562,13.3082381 3.99377344,13.4046738 3.28125,12.9772024 L3.28125,10.952381 L24.71875,10.952381 L24.71875,13.0089643 C24.0209922,13.397719 23.2447578,13.2901119 22.5989531,12.700381 Z M24.71875,14.1966405 L24.71875,15.3333333 L3.28125,15.3333333 L3.28125,14.1802119 C3.57694531,14.2826714 3.88040625,14.3339286 4.18359375,14.3338738 C4.88933594,14.3338738 5.59321875,14.0574357 6.19275781,13.5096524 C6.97741406,12.7931476 7.95232812,12.7931476 8.73698438,13.5096524 C9.93874219,14.6071357 11.5535547,14.607081 12.7552578,13.5096524 C13.5399687,12.7931476 14.5148828,12.7931476 15.2994844,13.5096524 C16.5012422,14.6071357 18.1160547,14.607081 19.3177578,13.5096524 C20.1024141,12.7930929 21.0773281,12.7932024 21.8619844,13.5096524 C22.6985391,14.2736905 23.7488672,14.5085095 24.71875,14.1966405 Z M25.61125,19.3024214 C25.0840625,20.858919 23.6265312,21.9047619 21.984375,21.9047619 L6.015625,21.9047619 C4.37346875,21.9047619 2.9159375,20.858919 2.38891406,19.30275 C2.2754375,18.9670595 2.56489844,18.6190476 2.92359375,18.6190476 L25.0764062,18.6190476 C25.4364141,18.6190476 25.7240156,18.9687024 25.61125,19.3024214 Z M26.359375,17.5238095 L1.640625,17.5238095 C1.33907812,17.5238095 1.09375,17.2781476 1.09375,16.9761905 C1.09375,16.67385 1.33869531,16.4285714 1.640625,16.4285714 L26.359375,16.4285714 C26.6609219,16.4285714 26.90625,16.6742333 26.90625,16.9761905 C26.90625,17.278531 26.6613047,17.5238095 26.359375,17.5238095 Z" id="Shape" fill-rule="nonzero"></path>
            </g>
        </g>
    </g>
</svg>