<?xml version="1.0" encoding="UTF-8"?>
<svg width="23px" height="26px" viewBox="0 0 23 26" version="1.1" xmlns="http://www.w3.org/2000/svg"
>
    <!-- Generator: Sketch 52.5 (67469) - http://www.bohemiancoding.com/sketch -->
    <title>ice-cream</title>
    <desc>Created with Sketch.</desc>
    <g id="Symbols" stroke="none" stroke-width="1" fill="none" fill-rule="evenodd">
        <g id="ice-cream" transform="translate(-7.000000, -4.000000)" fill="#000000">
            <g>
                <g transform="translate(7.000000, 4.000000)">
                    <path d="M22.9463523,9.51435811 C22.9463523,9.27554897 22.7489977,9.08192568 22.5051053,9.08192568 L21.1647744,9.08192568 C21.1275011,8.40519427 20.9995223,7.73648649 20.7842851,7.09269427 C22.1276323,6.18918919 22.770112,4.57221286 22.4038425,3.01625843 C22.0375731,1.46051519 20.7371009,0.282939189 19.1257306,0.0475084324 C17.5141449,-0.187711135 15.9200109,0.567356432 15.1068926,1.95101351 C12.6356509,1.36021957 10.0252267,1.97170605 8.0941247,3.59417232 C8.08442935,3.60282941 8.07430306,3.61064189 8.06546951,3.62014357 C7.47426747,4.11951016 6.96127476,4.70101351 6.54221934,5.34607265 L6.34594202,4.62858951 C6.29143247,4.43391049 6.19103156,4.25422297 6.05292644,4.10451859 C6.0384911,4.08445946 6.0221167,4.06566724 6.00423411,4.04835303 L2.26031364,0.380067568 C1.74344275,-0.126689189 0.905116518,-0.126689189 0.388030187,0.380067568 C-0.128840705,0.886613189 -0.128840705,1.70819254 0.388030187,2.21473816 L3.88051747,5.63703546 L4.82226097,9.08192568 L3.9727312,9.08192568 C3.72905426,9.08192568 3.5314842,9.27554897 3.5314842,9.51435811 C3.53730138,13.7668919 6.41811862,17.5010557 10.5914362,18.6653294 L11.6506014,21.7789274 C9.25843076,22.2472551 7.50270722,23.7413429 7.50270722,25.5143581 C7.50270722,25.7531672 7.70027728,25.9467905 7.94395423,25.9467905 L18.5338823,25.9467905 C18.7777747,25.9467905 18.9751293,25.7531672 18.9751293,25.5143581 C18.9751293,23.7413429 17.2194057,22.2468328 14.8274505,21.7776605 L15.8864003,18.6640625 C20.0595024,17.4997889 22.9401041,13.7664696 22.9463523,9.51435811 Z M17.2689598,3.83826011 C17.4688999,3.9748733 17.7440329,3.92673141 17.8834308,3.73078546 C18.0228286,3.53483951 17.9737054,3.2652027 17.7737654,3.12858951 C17.2163894,2.74936654 16.6118293,2.44130065 15.9747358,2.21220438 C16.6501799,1.21811654 17.859731,0.707136811 19.0610949,0.908361514 C20.2622433,1.10958616 21.2300566,1.98521957 21.5303976,3.14273649 C21.8307385,4.30025341 21.4071587,5.52238173 20.4499026,6.26161319 C20.254918,5.84565032 20.0230909,5.44721286 19.7570069,5.07094595 C19.668025,4.94193411 19.5148381,4.86993243 19.356265,4.88260135 C19.1979073,4.89505914 19.0585094,4.99028714 18.9915037,5.13154562 C18.9247133,5.27280405 18.9404414,5.43855573 19.033086,5.56524492 C19.3735012,6.04476351 19.6505733,6.56482265 19.8576233,7.11254222 C19.8604242,7.11739865 19.8576233,7.12246622 19.8625787,7.12732265 L19.8647332,7.1302787 C20.1000075,7.75232265 20.2417754,8.40456081 20.2857276,9.06672297 C20.1370653,9.07664697 19.9948666,9.082348 19.8595624,9.082348 C16.1460207,9.07094595 13.0736661,6.24683276 12.8246028,2.61570946 C12.9622771,2.60789697 13.0990895,2.59543919 13.2389183,2.59543919 C14.6807273,2.59396114 16.0878485,3.02787162 17.2689598,3.83826011 Z M11.2317615,9.08192568 C9.7653908,7.82094595 8.89905576,6.019848 8.83937539,4.1089527 C9.74233735,3.4001267 10.8101207,2.92060811 11.9474951,2.71304897 C12.1491588,5.42461995 13.7769035,7.8376267 16.2434053,9.08192568 L11.2317615,9.08192568 Z M8.01332995,4.87246622 C8.21714817,6.43940032 8.90444206,7.90815032 9.98299799,9.08192568 L6.19275518,9.08192568 C6.29315609,7.51668076 6.93542044,6.03209459 8.01332995,4.87288854 L8.01332995,4.87246622 Z M4.5878485,5.10726351 L1.01392009,1.60472973 C0.846297962,1.43538854 0.848021583,1.16554054 1.01779826,0.998310811 C1.18779038,0.831292216 1.46292344,0.828336162 1.6363628,0.991976324 L5.33633094,4.61782097 C5.34882716,4.63429054 5.36261613,4.64991557 5.37726696,4.66448481 C5.43263828,4.71621622 5.47271244,4.78146114 5.49339589,4.85346281 L5.9346429,6.4634713 C5.71703576,6.96410476 5.554369,7.48585303 5.44922812,8.02027027 L4.70440836,5.30152027 C4.68372491,5.22804054 4.64343525,5.16110643 4.5878485,5.10768584 L4.5878485,5.10726351 Z M4.42518174,9.94679054 L5.31909472,9.94679054 C5.47422062,12.7626689 7.17392647,15.2751267 9.76021994,16.5116132 C12.3465134,17.7480997 15.4132663,17.5143581 17.7733344,15.9009713 C17.904976,15.8135557 17.9784454,15.6634291 17.9655182,15.5080237 C17.9528065,15.3528294 17.8558528,15.2162162 17.7114996,15.150549 C17.5673617,15.0850929 17.3982314,15.1005068 17.2689598,15.1913006 C15.1784229,16.620777 12.4630733,16.8325591 10.1682873,15.7449324 C7.87328576,14.6575169 6.35649919,12.4402449 6.20158873,9.94679054 L20.2822804,9.94679054 C20.2036402,11.2094595 19.7707959,12.4265203 19.0313624,13.4636824 C18.9387178,13.5903716 18.9227743,13.7561233 18.9897801,13.8973817 C19.0567858,14.0388514 19.1961837,14.1338682 19.3545414,14.1465372 C19.5131145,14.1589949 19.6660859,14.0869932 19.7552833,13.9579814 C20.5977031,12.7757601 21.0859188,11.3864021 21.1647744,9.94679054 L22.0528702,9.94679054 C21.8178114,14.5494088 17.9413875,18.1630068 13.2389183,18.1630068 C8.53666445,18.1630068 4.66024059,14.5494088 4.42518174,9.94679054 Z M18.0432966,25.0819257 L8.43475531,25.0819257 C8.7723696,23.6167652 10.7980553,22.4873311 13.2389183,22.4873311 C15.6799966,22.4873311 17.7056823,23.6171875 18.0432966,25.0819257 Z M13.9397857,21.6543497 C13.7094668,21.6357686 13.476778,21.6224662 13.2389183,21.6224662 C13.001274,21.6224662 12.7685851,21.6353463 12.5382663,21.6543497 L11.598031,18.8868243 C12.6839123,19.0720017 13.7941397,19.0720017 14.880021,18.8868243 L13.9397857,21.6543497 Z"
                          id="Shape" fill-rule="nonzero"></path>
                    <path d="M18.0799236,10.9309544 C18.0219668,10.6991132 17.7830298,10.5572213 17.5464628,10.6140203 C16.1688587,10.9455237 14.721017,10.8572635 13.3961987,10.3606419 C13.2475364,10.3000422 13.0773287,10.3234797 12.9515044,10.4216638 C12.8258955,10.519848 12.7644915,10.6773649 12.7916386,10.8327703 C12.8187856,10.9881757 12.9299591,11.1165541 13.0818533,11.1682855 C14.5738628,11.7293075 16.2050547,11.8287584 17.7565292,11.4537584 C17.9930961,11.3967483 18.1378803,11.1627956 18.0799236,10.9309544 Z"
                          id="Path"></path>
                    <path d="M13.2389183,14.2711149 C11.1843619,14.267103 9.35430717,12.9974662 8.66765965,11.0996622 C8.58621853,10.8743665 8.33392347,10.7565456 8.10425099,10.8361486 C7.87436301,10.9159628 7.75414047,11.1632179 7.83558153,11.3885135 C8.64762251,13.6311233 10.810767,15.1313345 13.2389183,15.1359797 C13.4828106,15.1359797 13.6801653,14.9423564 13.6801653,14.7035473 C13.6801653,14.4647382 13.4828106,14.2711149 13.2389183,14.2711149 Z"
                          id="Path"></path>
                </g>
            </g>
        </g>
    </g>
</svg>