<?xml version="1.0" encoding="UTF-8"?>
<svg width="28px" height="28px" viewBox="0 0 28 28" version="1.1" xmlns="http://www.w3.org/2000/svg"
>
    <!-- Generator: Sketch 52.5 (67469) - http://www.bohemiancoding.com/sketch -->
    <title>pizza</title>
    <desc>Created with Sketch.</desc>
    <g id="Symbols" stroke="none" stroke-width="1" fill="none" fill-rule="evenodd">
        <g id="pizaa" transform="translate(-4.000000, -3.000000)" fill="#000000">
            <g id="pizza" transform="translate(4.000000, 3.000000)">
                <path d="M27.8373594,0.157465887 C27.6879531,0.0103157895 27.4670703,-0.0388070175 27.2694844,0.0318206628 L4.55486719,8.11508772 C3.76572656,7.63346589 2.76478125,7.52070175 1.84674219,7.90009357 C0.322875,8.53012086 -0.403429687,10.280039 0.227773438,11.8010448 C1.7163125,15.3874464 3.86547656,18.597731 6.61576563,21.3426589 C9.36605469,24.0875867 12.5825547,26.232616 16.1760156,27.7181988 C16.5492031,27.8724444 16.9360078,27.9454737 17.3168516,27.9454737 C18.4912656,27.9454191 19.6079297,27.2508772 20.0845312,26.1023314 C20.4052187,25.329575 20.3749219,24.4978713 20.0681797,23.7837349 L27.9705781,0.72254191 C28.0385,0.524304094 27.9867656,0.304670565 27.8373594,0.157465887 Z M7.99416406,8.05008187 L10.4015078,7.19348928 C10.6841328,7.4940117 10.8218906,7.90773489 10.7667109,8.32615205 C10.7180391,8.6945731 10.5286016,9.02211306 10.2332344,9.24835088 C9.93786719,9.47458869 9.57211719,9.57234308 9.20270313,9.52392982 C8.83361719,9.47540741 8.50549219,9.28639376 8.2788125,8.99154776 C8.06996094,8.71989864 7.97059375,8.38848343 7.99416406,8.05008187 Z M19.0740156,25.6845146 C18.6735938,26.6493957 17.5611406,27.1092398 16.5945938,26.7094893 C9.59240625,23.8147914 4.13880469,18.3717661 1.23834375,11.3832281 C1.04436719,10.9158519 1.04436719,10.4010994 1.23834375,9.93366862 C1.43232031,9.4662924 1.79703125,9.1022924 2.26532031,8.90869396 C2.73360937,8.71509552 3.24942187,8.71509552 3.71771094,8.90869396 C4.186,9.1022924 4.55071094,9.4662924 4.7446875,9.93366862 C5.98614844,12.9250838 7.77880469,15.6027135 10.0728359,17.8922729 C12.3668672,20.1818324 15.0497266,21.9709396 18.0469844,23.2100351 C19.01375,23.6096218 19.4744922,24.7197427 19.0740156,25.6845146 Z M23.9326172,9.13296686 C23.883125,9.13176608 23.8335781,9.12892788 23.7841406,9.12248733 C23.4150547,9.07396491 23.0869297,8.88489669 22.8603047,8.59010526 C22.633625,8.29531384 22.5355703,7.9300039 22.5841328,7.56163743 C22.6844844,6.80110721 23.3858516,6.26392203 24.1481406,6.36391423 C24.3832969,6.39480702 24.6040703,6.48584795 24.7923594,6.62431969 L23.9326172,9.13296686 Z M25.1558672,5.56304873 C24.8894297,5.41824561 24.5966875,5.32180117 24.290875,5.28162963 C22.9307422,5.10244055 21.6787813,6.06180897 21.4997344,7.41918129 C21.413,8.07666277 21.588,8.72852242 21.9925234,9.25468226 C22.3821719,9.76146589 22.9399844,10.0925536 23.5692188,10.1935283 L22.48225,13.3657154 L21.2322031,12.4083665 C20.9926172,12.2249747 20.6492344,12.2699493 20.4654297,12.5091228 C20.2815703,12.7482963 20.3267969,13.0909006 20.5663828,13.2744016 L22.1088438,14.4556413 L19.2818281,22.7058168 C19.0447031,22.5000468 18.7716484,22.3278986 18.4657812,22.2014347 C12.67,19.8053879 8.15609375,15.3002807 5.75547656,9.51590643 C5.67202344,9.31472125 5.56833594,9.12794542 5.44873437,8.95590643 L6.91321094,8.43476803 C6.96434375,8.87512671 7.13371094,9.29518129 7.41114062,9.65601559 C7.81560937,10.1821754 8.40125781,10.5195945 9.06002344,10.6061053 C9.17038281,10.6206238 9.28041406,10.6278285 9.38989844,10.6278285 C9.93392969,10.6278285 10.4602422,10.4504405 10.8991094,10.114386 C11.4263516,9.71059649 11.764375,9.12619883 11.8511641,8.46860819 C11.9289844,7.87831579 11.7909531,7.29364522 11.4810391,6.80929435 L18.2790781,4.39015984 L18.5367109,5.01096296 C18.6239922,5.221154 18.8275938,5.34805458 19.0421875,5.34805458 C19.1119141,5.34805458 19.1827891,5.33462768 19.2512578,5.30635478 C19.5302734,5.19102534 19.6627813,4.87167251 19.5472266,4.59320078 L19.3106484,4.02310331 L26.5687188,1.44022612 L25.1558672,5.56304873 Z"
                      id="Shape" fill-rule="nonzero"></path>
                <path d="M5.90625,14.6427446 C5.90460937,14.6401793 5.90007031,14.6332476 5.89832031,14.6307368 C5.73086719,14.3800468 5.39196875,14.3127485 5.14067969,14.4797115 C4.88982813,14.6464016 4.82179688,14.9847485 4.98782813,15.2355478 C5.09255469,15.3961248 5.26777344,15.4837271 5.44676563,15.4837271 C5.54804688,15.4837271 5.65047656,15.4556725 5.74191406,15.3969981 C5.99599219,15.2339649 6.06954688,14.8962729 5.90625,14.6427446 Z"
                      id="Path"></path>
                <path d="M5.07450781,13.2867914 C4.54157813,12.3542222 4.06251563,11.3782066 3.65066406,10.3859805 C3.53510938,10.1073996 3.21502344,9.97531384 2.93617187,10.0906433 C2.65710156,10.2059727 2.52464844,10.525271 2.64025781,10.8037427 C3.06955469,11.8381053 3.56896094,12.8554932 4.12447656,13.8275789 C4.225375,14.0040936 4.41,14.1031033 4.59998438,14.1031033 C4.69185938,14.1031033 4.78499219,14.079961 4.87041406,14.0313294 C5.13275,13.8819415 5.2241875,13.548616 5.07450781,13.2867914 Z"
                      id="Path"></path>
                <path d="M17.1135234,6.98564522 C17.0051328,6.97134503 16.8950469,6.96414035 16.7863281,6.96414035 C15.5439922,6.96414035 14.4846953,7.8922885 14.3223828,9.12308772 C14.1433359,10.4804055 15.1040312,11.7300897 16.464,11.9087875 C16.5723906,11.9230877 16.6824766,11.9302924 16.7911953,11.9302924 C18.0334766,11.9302924 19.0927734,11.0021442 19.2551406,9.77123587 C19.4341328,8.41397271 18.4734375,7.16434308 17.1135234,6.98564522 Z M18.1707969,9.62877973 C18.0797969,10.3185185 17.4867109,10.8386199 16.7911953,10.8386199 C16.7300547,10.8386199 16.6679844,10.8345809 16.6067891,10.8265029 C15.8447188,10.726347 15.3064844,10.0261287 15.4067813,9.26554386 C15.4977813,8.57585965 16.0908125,8.05581287 16.7863281,8.05581287 C16.8474688,8.05581287 16.9095391,8.05985185 16.9707344,8.06792982 C17.73275,8.16814035 18.2710938,8.86830409 18.1707969,9.62877973 Z"
                      id="Shape" fill-rule="nonzero"></path>
                <path d="M16.9712266,13.7747992 C16.8627812,13.760499 16.75275,13.7532943 16.6440312,13.7532943 C15.4016953,13.7532943 14.3423984,14.6814425 14.1800859,15.9122963 C14.0932969,16.5698324 14.2682969,17.2216374 14.6728203,17.7478519 C15.0772891,18.2740117 15.6628828,18.6114308 16.3217031,18.6980507 C16.4300391,18.7122963 16.5400703,18.7194464 16.6487344,18.7194464 C17.8910703,18.7194464 18.9504219,17.7912982 19.1127891,16.5603899 C19.2918906,15.2031813 18.3311406,13.9536062 16.9712266,13.7747992 Z M18.0285,16.4179883 C17.9375,17.1077271 17.3443594,17.6278285 16.6488438,17.6278285 C16.5877578,17.6278285 16.5256875,17.6237349 16.4645469,17.6157115 C16.0954063,17.5671345 15.7672813,17.3780663 15.5406016,17.0832749 C15.3139219,16.7884834 15.2158672,16.4232281 15.2644844,16.0547524 C15.3554844,15.3650682 15.9485703,14.8449669 16.6440313,14.8449669 C16.7051719,14.8449669 16.7672422,14.8490058 16.8284375,14.8570838 C17.5903984,14.9572398 18.1287422,15.6574581 18.0285,16.4179883 Z"
                      id="Shape" fill-rule="nonzero"></path>
                <path d="M13.3642578,11.5136218 L11.6833828,11.2927329 C11.3840781,11.2530526 11.1092188,11.4637349 11.0697891,11.7625653 C11.0303047,12.0614503 11.241125,12.3356101 11.5405391,12.374963 L13.2214141,12.5958519 C13.2456406,12.5990721 13.2697031,12.6006004 13.2934922,12.6006004 C13.5637031,12.6006004 13.79875,12.4006706 13.8349531,12.1260195 C13.8744922,11.8271891 13.6637266,11.5529747 13.3642578,11.5136218 Z"
                      id="Path"></path>
                <path d="M12.5119531,15.5415283 L12.3635313,14.4158519 C12.3241016,14.1169669 12.0494609,13.9065029 11.7499922,13.9459649 C11.4505234,13.9853177 11.2397578,14.259423 11.2791875,14.558308 L11.4276641,15.6839844 C11.4638672,15.9586901 11.6988594,16.1586199 11.969125,16.1586199 C11.9929141,16.1586199 12.0169766,16.1570916 12.0411484,16.1538713 C12.3406172,16.1145185 12.5513828,15.8404133 12.5119531,15.5415283 Z"
                      id="Path"></path>
            </g>
        </g>
    </g>
</svg>