<?xml version="1.0" encoding="UTF-8"?>
<svg width="28px" height="26px" viewBox="0 0 28 26" version="1.1" xmlns="http://www.w3.org/2000/svg"
>
    <!-- Generator: Sketch 52.5 (67469) - http://www.bohemiancoding.com/sketch -->
    <title>serving-dish</title>
    <desc>Created with Sketch.</desc>
    <g id="Symbols" stroke="none" stroke-width="1" fill="none" fill-rule="evenodd">
        <g id="serving-dish" transform="translate(-4.000000, -3.000000)" fill="#000000" fill-rule="nonzero">
            <g transform="translate(4.000000, 3.000000)" id="Shape">
                <path d="M26.8052063,13.2652269 L25.8332214,13.2652269 C25.742218,11.7734873 25.3822632,10.3337148 24.7593384,8.98019509 C24.6642761,8.77297305 24.4207458,8.68327029 24.2154541,8.77922635 C24.0101624,8.87539809 23.9210815,9.12121815 24.0163574,9.32844014 C24.5886536,10.5724191 24.9225464,11.8948879 25.0122681,13.2652269 L6.25061035,13.2652269 C6.02438353,13.2652269 5.84109498,13.4502389 5.84109498,13.6785928 C5.84109498,13.9069467 6.02438353,14.0919586 6.25061035,14.0919586 L26.8052063,14.0919586 C27.0124206,14.0919586 27.1807556,14.2620919 27.1807556,14.4712547 L27.1807556,14.9758327 C27.1807556,15.1849953 27.0124206,15.3551287 26.8052063,15.3551287 L1.19479369,15.3551287 C0.987579359,15.3551287 0.819244398,15.1849953 0.819244398,14.9758327 L0.819244398,14.4712547 C0.819244398,14.2620919 0.987579359,14.0919586 1.19479369,14.0919586 L4.3414612,14.0919586 C4.56768802,14.0919586 4.75119017,13.9069467 4.75119017,13.6785928 C4.75119017,13.4502389 4.56768802,13.2652269 4.3414612,13.2652269 L2.98773191,13.2652269 C3.16824342,10.5187268 4.33505248,7.96370754 6.30166627,6.0312168 C8.19692995,4.16902206 10.6459046,3.07275077 13.2632141,2.8989517 C13.2647095,2.8989517 13.2662048,2.89916732 13.2677002,2.8989517 C13.3792115,2.8916202 13.4894409,2.8860138 13.5983887,2.88191679 C13.6201783,2.88126988 13.6417542,2.88019173 13.6635437,2.87954482 C13.7024231,2.87825106 13.7410889,2.87738854 13.7793274,2.87652601 C13.8528137,2.87523225 13.9263001,2.87393843 14,2.87393843 C14.0978393,2.87393843 14.1956787,2.8758791 14.2933044,2.87846668 C14.3221436,2.87932921 14.350769,2.88019173 14.3798218,2.88105426 C14.4550171,2.88364184 14.5299988,2.88752324 14.6049805,2.8916202 C14.6447143,2.89377654 14.6844482,2.89593288 14.7243958,2.89852041 C18.0870361,3.12148355 21.1807251,4.88664414 23.105896,7.71702495 C23.2338562,7.90505573 23.4889221,7.9531416 23.675415,7.82376262 C23.8619079,7.69459926 23.9093323,7.43713506 23.7811585,7.24888865 C21.8867493,4.46357484 18.9381104,2.63933121 15.6790771,2.16882296 C15.8833008,1.84882566 15.9980163,1.47211718 15.9980163,1.07751127 C15.9980163,0.85282313 15.8986816,0.438594718 15.2334595,0.191480892 C14.9012756,0.0681395966 14.4631348,2.84217094e-14 14,2.84217094e-14 C13.5366516,2.84217094e-14 13.0985107,0.0681395966 12.7663269,0.191480892 C12.1011048,0.438594718 12.0019837,0.85282313 12.0019837,1.07751127 C12.0019837,1.47103904 12.116272,1.84710061 12.3192139,2.16645105 C9.8448181,2.51987131 7.54986575,3.65064355 5.73022461,5.43866112 C3.60446166,7.52748473 2.34857175,10.2936073 2.16677858,13.2650113 L1.19479369,13.2650113 C0.535980211,13.2652269 1.13686838e-13,13.8062467 1.13686838e-13,14.4712547 L1.13686838e-13,14.9758327 C1.13686838e-13,15.6410563 0.535980211,16.182076 1.19479369,16.182076 L5.60717773,16.182076 C5.38693236,16.334312 5.17587279,16.5050922 4.97827148,16.6946325 L4.97015378,16.7023951 C4.95755006,16.7142549 4.94558717,16.7269772 4.93469238,16.740562 L2.99008177,19.124154 C2.74612428,18.9678211 2.45730592,18.9108944 2.17233275,18.9660961 C1.87518308,19.0234541 1.61819459,19.1942344 1.44857787,19.4469546 L0.683807359,20.585274 C0.334106445,21.1060244 0.469116211,21.8173932 0.984588609,22.1708134 L6.21771238,25.7593551 C6.40740964,25.889381 6.62658691,25.9570893 6.85110475,25.9570893 C6.92245482,25.9570893 6.99444583,25.9501891 7.06622317,25.9363887 C7.36315918,25.8790307 7.62014772,25.7082504 7.78976439,25.4555301 L8.5545349,24.3172107 C8.90423581,23.7964603 8.76943971,23.0850915 8.25396731,22.7316713 L8.22406003,22.7111863 C8.58828737,22.2939391 9.07385254,21.994858 9.60214232,21.8715167 C10.715332,21.6112494 12.0252686,21.7787951 12.9137268,21.9273653 C14.0128174,22.1110835 15.1672363,22.0483346 16.2522278,21.7458035 L17.7604065,21.3251062 C18.7650757,21.044785 19.6896362,20.5727674 20.508667,19.9219911 C20.514862,19.9170316 20.5208435,19.9120721 20.5268249,19.9066813 L23.1161499,17.5918757 C23.5574951,17.250962 23.6536255,16.6605626 23.5013122,16.182076 L26.8052063,16.182076 C27.4640198,16.182076 28,15.6410563 28,14.9760483 L28,14.4712547 C28,13.8062467 27.4640198,13.2652269 26.8052063,13.2652269 Z M14,0.826947333 C14.6897888,0.826947333 15.1031494,0.999236968 15.178772,1.09497747 C15.1732178,1.48721137 14.9766846,1.84904128 14.6568909,2.06596668 C14.576355,2.06165405 14.4968872,2.05820394 14.4176331,2.05518513 C14.3909302,2.0543226 14.3642273,2.05302878 14.3375244,2.05238193 C14.2232361,2.04893182 14.1104431,2.04720677 14,2.04720677 C13.9216003,2.04720677 13.8417053,2.04828491 13.7611694,2.05000997 C13.72229,2.05065687 13.683197,2.05173502 13.644104,2.05302878 C13.5975342,2.05453822 13.5505371,2.05604765 13.50354,2.05798832 C13.4499206,2.06036028 13.3963013,2.06273225 13.3428955,2.06575106 C13.0231018,1.84882566 12.8267822,1.48699575 12.821228,1.09497747 C12.8968506,0.999236968 13.3102112,0.826947333 14,0.826947333 Z M16.9373169,16.3815353 C16.9067688,16.3116707 16.8702393,16.2452561 16.82901,16.182076 L20.7577514,16.182076 L19.059021,17.3169453 L16.6376038,18.0240015 L16.5553589,18.0259421 C17.0214844,17.6337082 17.1915283,16.9639564 16.9373169,16.3815353 Z M12.4956665,16.182076 L11.9045715,16.3064955 L11.4476318,16.182076 L12.4956665,16.182076 Z M7.87649538,23.8531714 L7.11193848,24.9914909 C7.06515502,25.0613555 6.99423216,25.1083632 6.91220091,25.1243199 C6.83038333,25.140061 6.74707031,25.1228105 6.67807005,25.0753715 L1.44494629,21.4868299 C1.30267331,21.3893644 1.26550293,21.1931396 1.36206055,21.0495289 L2.12683105,19.9109939 C2.17361452,19.8413449 2.2443237,19.7941215 2.32635495,19.7783805 C2.34622194,19.7744991 2.36608887,19.7725584 2.38574219,19.7725584 C2.44769284,19.7725584 2.50814818,19.7913184 2.56048581,19.8273288 L2.84310912,20.020966 C2.84310912,20.0211816 2.84332278,20.0211816 2.84332278,20.0211816 L7.79360963,23.4156549 C7.93588255,23.5131204 7.97305299,23.7095607 7.87649538,23.8531714 Z M22.6134949,16.9389431 C22.6036682,16.9460589 22.5942688,16.9538217 22.585083,16.9620157 L19.992981,19.2796244 C19.2621765,19.8581641 18.4375915,20.2782146 17.5422974,20.527916 L16.0341186,20.9486134 C15.0629883,21.2196623 14.0303345,21.2759421 13.0478821,21.1116308 C12.0904236,20.9516322 10.672821,20.7724423 9.4173584,21.065917 C8.69018555,21.2358346 8.02624512,21.6576102 7.54324342,22.2441282 L3.67175293,19.5894871 L5.55078125,17.28611 C6.26150514,16.608811 7.16278073,16.2066581 8.02581784,16.182076 L8.04248047,16.182076 C8.31015013,16.1775478 8.59341432,16.2571158 8.89312747,16.341859 C8.95336914,16.3586783 9.0133972,16.3757133 9.07363893,16.3921013 L11.7857971,17.1306396 C11.8479615,17.1474588 11.9131165,17.1493996 11.9761353,17.1360304 L15.5282593,16.3884355 C15.6893311,16.354797 15.8585205,16.3877886 15.9924622,16.4794321 C16.0789795,16.5387308 16.1464844,16.6202395 16.1877136,16.7149018 C16.3094788,16.9937135 16.1947632,17.3210423 15.9226074,17.4624967 L14.7107239,18.1102541 C14.5430298,18.1999569 14.458435,18.3940254 14.506073,18.5794686 C14.5539245,18.7651274 14.7211914,18.8914875 14.9113159,18.8889 L16.7089538,18.849655 C16.7446289,18.8487925 16.7798767,18.8434017 16.8138428,18.8334826 L19.3467712,18.0938661 C19.3867188,18.082222 19.42453,18.0645402 19.459137,18.0414676 L22.0144958,16.3340964 C22.2289734,16.2004047 22.5143738,16.0904326 22.6662598,16.3166302 C22.7846069,16.4925856 22.787384,16.8093484 22.6134949,16.9389431 Z"></path>
            </g>
        </g>
    </g>
</svg>