<?xml version="1.0" encoding="UTF-8"?>
<svg width="28px" height="28px" viewBox="0 0 28 28" version="1.1" xmlns="http://www.w3.org/2000/svg" xmlns:xlink="http://www.w3.org/1999/xlink">
    <!-- Generator: Sketch 52.5 (67469) - http://www.bohemiancoding.com/sketch -->
    <title>spaguetti</title>
    <desc>Created with Sketch.</desc>
    <g id="Symbols" stroke="none" stroke-width="1" fill="none" fill-rule="evenodd">
        <g id="spaguetti" transform="translate(-4.000000, -3.000000)" fill="#000000">
            <g transform="translate(4.000000, 3.000000)">
                <path d="M27.5333516,22.4 L0.466648437,22.4 C0.209070312,22.4 0,22.6085781 0,22.8666484 C0,25.697 2.303,28 5.13335156,28 L22.8667031,28 C25.697,28 28,25.697 28,22.8666484 C28,22.6085781 27.7914219,22.4 27.5333516,22.4 Z M22.8666484,27.0666484 L5.13335156,27.0666484 C2.975,27.0666484 1.19185938,25.4305078 0.959,23.3332969 L27.0405078,23.3332969 C26.8076484,25.4305625 25.025,27.0666484 22.8666484,27.0666484 Z" id="Shape" fill-rule="nonzero"></path>
                <path d="M14.0004922,15.4 C13.9981406,15.4 13.9962813,15.4 13.9944219,15.4 C12.1552813,15.4 10.3889297,16.0771406 9.02163281,17.3072812 L9.6455625,18.0007734 C10.8416328,16.9255625 12.3858438,16.3333516 13.9949141,16.3333516 C13.9963359,16.3333516 13.9986328,16.3333516 14.0000547,16.3333516 C16.5863359,16.3333516 18.7974063,17.6838594 19.6331953,19.7731406 L20.5002656,19.4268594 C19.5215781,16.9805781 16.9698594,15.4 14.0004922,15.4 Z" id="Path"></path>
                <path d="M17.5672109,18.5518594 C15.1862812,16.5857891 11.6498594,16.9232109 9.68335156,19.3032109 L10.4029297,19.8972812 C12.0414219,17.9139297 14.9888594,17.6320703 16.9722109,19.271 C17.2942109,19.5374922 17.5788594,19.8454922 17.8182812,20.1856484 L18.5827031,19.6494375 C18.2952109,19.2411406 17.9535781,18.872 17.5672109,18.5518594 Z" id="Path"></path>
                <path d="M16.6128594,20.2001406 C15.1419297,18.7586328 12.7740703,18.7837891 11.333,20.2533516 L11.9998594,20.9067031 C13.0806484,19.8044219 14.8572812,19.7862109 15.9595078,20.866125 C16.4938594,21.3892656 16.8,22.1181953 16.8,22.8667031 L17.7333516,22.8667031 C17.7333516,21.8689297 17.325,20.8968594 16.6128594,20.2001406 Z" id="Path"></path>
                <path d="M19.1538594,17.2666484 C19.1468594,17.2666484 19.1403516,17.2666484 19.1333516,17.2666484 L18.6667031,17.2666484 L18.6667031,18.2 L19.1352109,18.2 C21.7844922,18.2102812 24.0468594,20.258 24.2685625,22.9054219 L25.1981406,22.8279297 C24.9372813,19.7054922 22.2833516,17.2666484 19.1538594,17.2666484 Z" id="Path"></path>
                <path d="M21.9160703,20.2043516 C21.0797891,19.4567734 20.0017891,19.0782812 18.8822813,19.1417734 C17.7622813,19.2038437 16.7337734,19.6989844 15.9857031,20.5347734 L16.6810547,21.1572812 C17.2629844,20.5072109 18.0628437,20.1217734 18.934125,20.0732109 C19.8100547,20.0279297 20.6430547,20.3182109 21.2940547,20.8997031 C21.8806328,21.4247031 22.2581953,22.1438437 22.357125,22.9254922 L23.2834766,22.8079141 C23.156,21.8035781 22.6702109,20.8786484 21.9160703,20.2043516 Z" id="Path"></path>
                <path d="M19.691,21.0690703 C18.4445078,20.7489297 17.1714922,21.5049297 16.8517891,22.7509297 L17.7562109,22.9824219 C17.9475625,22.2348437 18.7119297,21.7817031 19.4595625,21.9734922 C19.9547031,22.0999844 20.3420547,22.4868437 20.4684922,22.9824219 L21.3729141,22.7509297 C21.161,21.9249297 20.517,21.2804922 19.691,21.0690703 Z" id="Path"></path>
                <path d="M9.34314062,17.2769297 C7.728,17.1453516 6.15814062,17.6493516 4.92285937,18.6979297 C3.68714062,19.7465078 2.93392969,21.2137188 2.80185937,22.8284219 L3.73192969,22.9049297 C3.8434375,21.5380703 4.48092969,20.2967188 5.52628125,19.4100703 C6.57207031,18.5229297 7.90021094,18.095 9.26707031,18.2079297 C10.0254219,18.2695078 10.7739297,18.5052109 11.4319297,18.8883516 L11.9018594,18.0814922 C11.1239297,17.6283516 10.2391406,17.3502109 9.34314062,17.2769297 Z" id="Path"></path>
                <path d="M9.38049219,19.1547891 C7.08498438,18.8710703 4.98121094,20.5109297 4.69842188,22.8097188 L5.62477344,22.9235781 C5.8445625,21.1357891 7.47791406,19.8650703 9.26619531,20.0806484 C10.7562656,20.2645078 11.9252656,21.4335078 12.1086875,22.9235781 L13.0359688,22.8097188 C12.7997188,20.8935781 11.2965781,19.3904922 9.38049219,19.1547891 Z" id="Path"></path>
                <path d="M9.45650781,21.0807187 C8.85401563,20.923 8.225,21.0102266 7.68736719,21.3242969 C7.14929688,21.6392969 6.76615625,22.1451562 6.608875,22.7480859 L7.511875,22.9842266 C7.60659375,22.6225781 7.83666406,22.3187344 8.15915625,22.1302266 C8.48164844,21.9412266 8.85915625,21.8894375 9.22080469,21.9841562 C9.709875,22.1120156 10.0934531,22.4951562 10.2213125,22.9846641 L11.123875,22.7480859 C10.9106484,21.9324219 10.2717891,21.2935078 9.45650781,21.0807187 Z" id="Path"></path>
                <path d="M14,21 C12.9705078,21 12.1333516,21.8372109 12.1333516,22.8666484 L13.0667031,22.8666484 C13.0667031,22.3519297 13.4852812,21.9332969 14.0000547,21.9332969 C14.5147734,21.9332969 14.9334062,22.351875 14.9334062,22.8666484 L15.8667578,22.8666484 C15.8666484,21.8372109 15.0294922,21 14,21 Z" id="Path"></path>
                <rect id="Rectangle" x="4.66664844" y="1.86664844" width="3.73335156" height="1"></rect>
                <rect id="Rectangle" x="5.6" y="3.73335156" width="2.8" height="1"></rect>
                <path d="M3.63907031,10.0352109 C3.14442188,9.17049219 3.14442188,8.09670313 3.63907031,7.23192969 C4.29707031,6.08157813 4.29707031,4.65221094 3.63907031,3.50185938 C3.14442188,2.63714063 3.14442188,1.56335156 3.63907031,0.698578125 C3.72164844,0.553929688 3.72121094,0.376578125 3.63764844,0.232367188 C3.55414063,0.0886484375 3.40014063,0 3.234,0 L1.86664844,0 L1.86664844,0.933351563 L2.52,0.933351563 C2.19614063,1.93063281 2.29878906,3.03849219 2.82892969,3.96484375 C3.32357813,4.8295625 3.32357813,5.90335156 2.82892969,6.768125 C2.17092969,7.91847656 2.17092969,9.34784375 2.82892969,10.4981953 C3.32357813,11.3629141 3.32357813,12.4367031 2.82892969,13.3014766 C2.17092969,14.4522656 2.17092969,15.8811953 2.80978906,16.9941953 C2.95257813,17.3059141 3.0734375,17.6293359 3.16914063,17.954125 L4.06421094,17.6904766 C3.95592969,17.3227578 3.81921094,16.9582656 3.63907031,16.5686172 C3.14442188,15.7043359 3.14442188,14.6296172 3.63907031,13.7653359 C4.29707031,12.6149297 4.29707031,11.1855078 3.63907031,10.0352109 Z" id="Path"></path>
                <path d="M27.9990703,3.402 C27.9607891,2.03650781 26.8193516,0.966929687 25.4524922,0.994 L11.8542813,1.39392969 L11.1425781,0.68228125 C10.7020703,0.242210938 10.1164219,0 9.49435156,0 C9.49342188,0 9.49249219,0 9.492,0 L5.166,0 C4.99849219,0 4.844,0.089578125 4.76092969,0.23471875 C4.10292969,1.38507031 4.10292969,2.8144375 4.76092969,3.96478906 C5.25557813,4.82950781 5.25557813,5.90335156 4.76092969,6.76807031 C4.10292969,7.91842187 4.10292969,9.34778906 4.76092969,10.4981406 C5.25557813,11.3628594 5.25557813,12.4366484 4.76092969,13.3014219 C4.10292969,14.4522109 4.10292969,15.8811406 4.76092969,17.0314922 C4.82485938,17.1434922 4.88085938,17.2597031 4.92892969,17.3796328 L5.79507031,17.0324219 C5.73157813,16.8732812 5.656,16.7169844 5.57107031,16.5685625 C5.07642188,15.7042812 5.07642188,14.6295625 5.57107031,13.7652812 C6.22907031,12.6149297 6.22907031,11.1855625 5.57107031,10.0352109 C5.07642188,9.17049219 5.07642188,8.09670312 5.57107031,7.23192969 C5.69892969,7.00792969 5.80207031,6.77414062 5.88,6.53335156 L9.49150781,6.53335156 C9.4924375,6.53335156 9.49292969,6.53335156 9.49385938,6.53335156 C10.1163672,6.53335156 10.7020703,6.29070312 11.1425781,5.85063281 L11.8486484,5.1445625 L25.3772969,5.93977344 C25.4258047,5.9425625 25.4935078,5.94163281 25.5219453,5.94398437 C26.8874375,5.94398437 27.9990156,4.83333594 27.9999453,3.46740625 L27.9990703,3.402 Z M25.5215625,5.01057812 C25.4856328,5.00264844 25.4627734,5.00964844 25.4329141,5.00822656 L11.6942109,4.20092969 C11.5612109,4.19114062 11.431,4.2424375 11.3367187,4.33671875 L10.4827187,5.19071875 C10.2185781,5.45436719 9.86764844,5.6 9.49336719,5.6 C9.492875,5.6 9.4924375,5.6 9.49194531,5.6 L6.05729687,5.6 C6.10164844,4.87850781 5.93971875,4.14635156 5.57101562,3.50142187 C5.12066406,2.71370312 5.08052344,1.75191406 5.45108594,0.933351562 L9.4924375,0.933351562 C9.49292969,0.933351562 9.49336719,0.933351562 9.49385937,0.933351562 C9.86721094,0.933351562 10.2185781,1.07892969 10.4827187,1.34307031 L11.3367187,2.19707031 C11.4272266,2.28757812 11.5542109,2.34078906 11.6802109,2.33335156 L25.4790703,1.92685937 C26.3503516,1.90307031 27.0419297,2.57692969 27.0666484,3.46685937 C27.0657187,4.31850781 26.3727188,5.01057812 25.5215625,5.01057812 Z" id="Shape" fill-rule="nonzero"></path>
                <path d="M7.43728125,10.0352109 C6.94263281,9.17049219 6.94263281,8.09670313 7.43678906,7.23242188 C7.6234375,6.90763281 7.75971875,6.55807031 7.84229688,6.19314062 L6.93185938,5.98735156 C6.86978906,6.26128125 6.76757813,6.524 6.62714063,6.7685625 C5.96914063,7.91891406 5.96914063,9.34828125 6.62714063,10.4986328 C7.12178906,11.3633516 7.12178906,12.4376328 6.62664844,13.3028437 C6.01764844,14.3724219 5.97007031,15.6749141 6.49922656,16.7860547 L7.34157813,16.3851953 C6.94307031,15.5489141 6.9794375,14.5694062 7.43722656,13.7653359 C8.09528125,12.6149297 8.09528125,11.1855625 7.43728125,10.0352109 Z" id="Path"></path>
                <rect id="Rectangle" x="1.86664844" y="1.86664844" width="1" height="1"></rect>
                <rect id="Rectangle" x="1.86664844" y="3.73335156" width="1.4" height="1"></rect>
                <rect id="Rectangle" x="1.86664844" y="5.6" width="1.86664844" height="1"></rect>
            </g>
        </g>
    </g>
</svg>