<?xml version="1.0" encoding="UTF-8"?>
<svg width="28px" height="19px" viewBox="0 0 28 19" version="1.1" xmlns="http://www.w3.org/2000/svg" xmlns:xlink="http://www.w3.org/1999/xlink">
    <!-- Generator: Sketch 52.5 (67469) - http://www.bohemiancoding.com/sketch -->
    <title>chicken</title>
    <desc>Created with Sketch.</desc>
    <g id="Symbols" stroke="none" stroke-width="1" fill="none" fill-rule="evenodd">
        <g id="chicken" transform="translate(-4.000000, -7.000000)" fill="#FFFFFF">
            <g transform="translate(4.000000, 7.000000)" id="Group">
                <g transform="translate(0.000000, 4.148148)">
                    <path d="M7.48533333,14.6963158 C3.35830303,14.6963158 0,11.5563736 0,7.69591903 C0,3.83546446 3.35830303,0.696315789 7.48533333,0.696315789 C11.6089697,0.696315789 19.8486061,3.72199169 19.8486061,7.69591903 C19.8486061,11.6698464 11.6089697,14.6963158 7.48533333,14.6963158 Z M7.48533333,1.48983163 C3.82581818,1.48983163 0.848484848,4.27427872 0.848484848,7.69591903 C0.848484848,11.1175593 3.82581818,13.9020064 7.48533333,13.9020064 C11.2772121,13.9020064 19.0001212,11.0294791 19.0001212,7.69591903 C19.0001212,4.36235898 11.2772121,1.48983163 7.48533333,1.48983163 Z" id="Shape" fill-rule="nonzero"></path>
                    <path d="M25.2008485,11.2714737 C23.6922424,11.2714737 22.4585455,10.2295789 22.4033939,8.93052632 L19.0069091,8.93052632 C18.7727273,8.93052632 18.5826667,8.76547368 18.5826667,8.56210526 C18.5826667,8.35873684 18.7727273,8.19368421 19.0069091,8.19368421 L22.8581818,8.19368421 C22.9812121,8.19368421 23.0974545,8.24010526 23.1780606,8.31968421 C23.2586667,8.4 23.2951515,8.50684211 23.2790303,8.61147368 C23.2612121,8.71831579 23.2501818,8.778 23.2501818,8.84063158 C23.2501818,9.77494737 24.1249697,10.5346316 25.2008485,10.5346316 C26.2767273,10.5346316 27.1515152,9.77494737 27.1515152,8.84063158 C27.1515152,8.30789474 26.8655758,7.81642105 26.3666667,7.49073684 C26.2597576,7.42147368 26.1969697,7.31242105 26.1969697,7.19673684 C26.1969697,7.08105263 26.2597576,6.97126316 26.3666667,6.90273684 C26.8655758,6.57557895 27.1515152,6.08410526 27.1515152,5.55284211 C27.1515152,4.61778947 26.2767273,3.85810526 25.2008485,3.85810526 C24.1249697,3.85810526 23.2501818,4.61778947 23.2501818,5.55284211 C23.2501818,5.61547368 23.2612121,5.67663158 23.2713939,5.73705263 C23.2892121,5.84242105 23.2561212,5.96989474 23.1755152,6.05094737 C23.0949091,6.132 22.9812121,6.19905263 22.8581818,6.19905263 L19.0069091,6.19905263 C18.7727273,6.19905263 18.5826667,6.034 18.5826667,5.83063158 C18.5826667,5.62726316 18.7727273,5.46221053 19.0069091,5.46221053 L22.4033939,5.46221053 C22.4585455,4.16315789 23.6922424,3.12126316 25.2008485,3.12126316 C26.7442424,3.12126316 28,4.21178947 28,5.55284211 C28,6.17105263 27.7327273,6.75094737 27.2541818,7.196 C27.7327273,7.64178947 28,8.22168421 28,8.84063158 C28,10.1809474 26.7442424,11.2714737 25.2008485,11.2714737 Z" id="Path"></path>
                    <path d="M2.99175758,6.18947368 C2.95272727,6.18947368 2.91369697,6.18505263 2.87381818,6.17473684 C2.64812121,6.118 2.51915152,5.91389474 2.58363636,5.71863158 C3.19793939,3.87284211 4.81430303,3.44105263 4.8830303,3.42410526 C5.11212121,3.36884211 5.34375758,3.47863158 5.40993939,3.67389474 C5.47612121,3.86842105 5.34884848,4.07178947 5.12569697,4.13 C5.06884848,4.14547368 3.87757576,4.48589474 3.39987879,5.92347368 C3.34557576,6.08410526 3.17587879,6.18947368 2.99175758,6.18947368 Z" id="Path"></path>
                </g>
                <g transform="translate(3.393939, 0.000000)">
                    <path d="M12.3538333,10.5885937 C12.1916667,10.5885937 12.0295,10.4997812 11.914,10.3252187 C10.927,8.838375 10.927,6.59509375 11.914,5.10825 C12.5206667,4.19409375 12.5206667,2.81596875 11.914,1.9018125 C11.7016667,1.5833125 11.7273333,1.10096875 11.97,0.82228125 C12.2115,0.5420625 12.5813333,0.57421875 12.7936667,0.8973125 C13.7806667,2.38415625 13.7806667,4.6274375 12.7936667,6.11275 C12.187,7.0284375 12.187,8.4065625 12.7936667,9.32071875 C13.006,9.63921875 12.9803333,10.1215625 12.7376667,10.40025 C12.6268333,10.5273437 12.4903333,10.5885937 12.3538333,10.5885937 Z" id="Path"></path>
                    <path d="M7.0805,10.5885937 C6.91833333,10.5885937 6.75616667,10.4997812 6.64066667,10.3252187 C5.65366667,8.838375 5.65366667,6.59509375 6.64066667,5.10825 C7.24733333,4.19409375 7.24733333,2.81596875 6.64066667,1.9018125 C6.42833333,1.5833125 6.454,1.10096875 6.69666667,0.82228125 C6.93816667,0.5420625 7.308,0.57421875 7.52033333,0.8973125 C8.50733333,2.38415625 8.50733333,4.6274375 7.52033333,6.11275 C6.91366667,7.0284375 6.91366667,8.4065625 7.52033333,9.32071875 C7.73266667,9.63921875 7.707,10.1215625 7.46433333,10.40025 C7.3535,10.5273437 7.217,10.5885937 7.0805,10.5885937 Z" id="Path"></path>
                    <path d="M1.80716667,10.5885937 C1.645,10.5885937 1.48283333,10.4997812 1.36733333,10.3252187 C0.380333333,8.838375 0.380333333,6.59509375 1.36733333,5.10825 C1.974,4.19409375 1.974,2.81596875 1.36733333,1.9018125 C1.155,1.5833125 1.18066667,1.10096875 1.42333333,0.82228125 C1.66483333,0.5420625 2.0335,0.57421875 2.247,0.8973125 C3.234,2.38415625 3.234,4.6274375 2.247,6.11275 C1.64033333,7.0284375 1.64033333,8.4065625 2.247,9.32071875 C2.45933333,9.63921875 2.43366667,10.1215625 2.191,10.40025 C2.08016667,10.5273437 1.94366667,10.5885937 1.80716667,10.5885937 Z" id="Path"></path>
                </g>
            </g>
        </g>
    </g>
</svg>
