<?xml version="1.0" encoding="UTF-8"?>
<svg width="26px" height="26px" viewBox="0 0 26 26" version="1.1" xmlns="http://www.w3.org/2000/svg" xmlns:xlink="http://www.w3.org/1999/xlink">
    <!-- Generator: Sketch 52.5 (67469) - http://www.bohemiancoding.com/sketch -->
    <title>fruit</title>
    <desc>Created with Sketch.</desc>
    <g id="Symbols" stroke="none" stroke-width="1" fill="none" fill-rule="evenodd">
        <g id="fruit" transform="translate(-6.000000, -4.000000)" fill="#FFFFFF">
            <g transform="translate(6.000000, 4.000000)">
                <polygon id="Rectangle" transform="translate(17.301166, 6.047169) rotate(-0.309394) translate(-17.301166, -6.047169) " points="16.8687325 5.61383456 17.73361 5.61382483 17.7336003 6.48050408 16.8687227 6.48051381"></polygon>
                <path d="M25.5167027,13.8344375 L19.3761622,13.8344375 L19.8950811,6.0630375 C19.9026486,5.94300417 19.8605405,5.8251375 19.7787568,5.73717083 C19.6941622,5.65364583 19.5812973,5.6051125 19.4626486,5.60110417 L18.5977838,5.60587083 L18.6021081,6.4725375 L19.0025405,6.4725375 L18.8991892,8.02257083 L17.6451351,8.71980417 C16.3391892,9.44200833 14.7714595,9.51107083 13.4072973,8.90657083 L13.4072973,6.49897083 L16.0040541,6.4855375 L15.9997297,5.61887083 L13.4085946,5.63230417 L13.4085946,3.6723375 L17.9651351,0.769004167 L17.5007027,0.0353708333 L12.7439459,3.06870417 C12.6191892,3.148275 12.5436757,3.2862375 12.5437297,3.4344375 L12.5437297,5.6366375 L6.49183784,5.6678375 C6.25302703,5.66919167 6.06054054,5.86435417 6.06189189,6.1036625 C6.06194595,6.11254583 6.06227027,6.121375 6.06286486,6.13020417 L6.54416216,13.3625375 C6.29156757,13.8227917 6.08859459,14.3087208 5.93875676,14.8120375 C5.17983784,13.4515333 3.7467027,12.6079958 2.1912973,12.6063708 C1.95248649,12.6063708 1.75886486,12.8003958 1.75886486,13.0397042 C1.75821622,13.8806417 2.00486486,14.7031625 2.46805405,15.4044042 C2.28075676,15.4968125 2.10627027,15.613325 1.94913514,15.7510708 L1.82372973,15.8620042 C0.298,17.2049042 -0.339783784,19.296225 0.176162162,21.2643708 L0.440378378,22.2874708 C0.772,23.5723042 1.56497297,24.6893833 2.66740541,25.4248042 C3.61805405,26.0642417 4.84724324,26.1120708 5.84448649,25.5483042 L5.82027027,25.5049708 C6.62978378,25.7449833 7.46518919,25.8864125 8.30848649,25.9261708 C8.39497297,25.9305042 8.48145946,25.9305042 8.57097297,25.9322375 L8.57097297,25.9677708 L14.2734595,25.9677708 C20.716,25.9735125 25.9434054,20.7445875 25.9491351,14.2885708 C25.9491351,14.2816375 25.9491351,14.2747042 25.9491351,14.2677708 C25.9491351,14.0284625 25.7555135,13.8344375 25.5167027,13.8344375 Z M19.2109189,14.9372708 L19.2109189,14.7011042 L23.5175135,14.7011042 C23.351027,18.2142458 21.22,21.3322958 18.0113514,22.7576375 C17.2107027,23.1123208 16.3634595,23.3503292 15.4954595,23.4644042 C16.1442703,22.8982 16.7168649,22.249825 17.1988108,21.5356375 C18.5141081,19.5879125 19.2151351,17.2890792 19.2109189,14.9372708 Z M12.5437297,6.50330417 L12.5437297,8.59847083 C11.1253514,8.2044625 9.60940541,8.3822375 8.32016216,9.09377083 L7.16902703,9.73467083 L6.95627027,6.53190417 L12.5437297,6.50330417 Z M7.84918919,12.9430708 L7.90194595,12.8746042 L7.34972973,12.4477708 L7.23254054,10.6923375 L8.73827027,9.8512375 C10.0557297,9.12139583 11.6395676,9.0571 13.0115676,9.67790417 C14.632973,10.4129458 16.5055676,10.3374375 18.0628108,9.4742375 L18.8269189,9.0491375 L18.6331892,11.9628708 C18.5367027,11.8884458 18.4312432,11.8265875 18.3192432,11.7787042 L17.6731892,11.5087375 C17.3282162,11.363625 16.9359459,11.3843708 16.6081081,11.5650708 C16.2720541,11.7494 16.0387568,12.0778667 15.975027,12.4564375 C15.5165405,15.1185125 14.1324865,17.5320708 12.068,19.2693042 C11.9159459,17.9520792 11.2824865,16.7379875 10.2898378,15.8611375 L10.1644324,15.7502042 C9.29151351,14.97145 7.98037838,14.9529792 7.08594595,15.7068708 L6.54151351,16.1618708 C6.67767568,14.9898667 7.12972973,13.8771208 7.84918919,12.9430708 Z M5.59367568,16.4478708 C4.06691892,16.2370542 2.86654054,15.034175 2.65616216,13.5042375 C4.18259459,13.7155958 5.3827027,14.9182042 5.59367568,16.4478708 Z M3.14691892,24.7041708 C2.22162162,24.0866167 1.556,23.1488833 1.27751351,22.0703708 L1.01286486,21.0477042 C0.58,19.3945375 1.11659459,17.6381833 2.39881081,16.5111375 L2.52421622,16.4002042 C2.67778378,16.2689583 2.85621622,16.17005 3.04875676,16.1094375 C3.85048649,16.9015167 4.93135135,17.3451958 6.05718919,17.3444375 C6.08475676,17.3416208 6.112,17.3360958 6.13848649,17.3279708 C6.38432432,17.3122083 6.61902703,17.2192583 6.80918919,17.0623375 L7.6372973,16.3690042 C8.20486486,15.8909833 9.03654054,15.9029542 9.59016216,16.3971708 L9.71556757,16.5081042 C10.6860541,17.3646958 11.2413514,18.5986667 11.2394595,19.8946042 C9.55708108,21.077225 7.58751351,21.7830708 5.53827027,21.9377708 L3.62302703,22.0820708 C3.39697297,22.0991333 3.22237838,22.2882292 3.22302703,22.5154042 L3.22302703,24.0940375 C3.22351351,24.2483583 3.30583784,24.3908167 3.43924324,24.4680042 L3.49935135,24.5035375 C3.85324324,24.709425 4.21886486,24.8945125 4.59427027,25.0577708 C4.08535135,25.114375 3.57281081,24.9891417 3.14691892,24.7041708 Z M8.34913514,25.0603708 L8.3487027,25.0608042 C6.85405405,24.9895208 5.39616216,24.5724917 4.08924324,23.8422708 L4.08924324,22.9162375 L5.60275676,22.8018375 C11.2327568,22.3796625 15.857027,18.178875 16.826973,12.6055042 C16.8461081,12.4869333 16.9187027,12.3838542 17.0237297,12.3260042 C17.1208649,12.2718375 17.2375135,12.2656083 17.3398378,12.3091042 L17.9858919,12.5795042 C18.2033514,12.6698 18.344973,12.882675 18.3443784,13.1185708 L18.3443784,14.9385708 C18.3482162,17.1174792 17.6989189,19.2473125 16.4805946,21.0520375 C14.662,23.7279792 11.5743784,25.2500083 8.34913514,25.0603708 Z M14.2734595,25.1011042 L12.8952973,25.1011097 C13.372973,24.8950542 13.8337838,24.6517917 14.2734595,24.3735375 L14.2734595,24.4138375 C15.6816216,24.4164917 17.0745405,24.1220958 18.3616757,23.5497708 C21.8827027,21.9853833 24.2153514,18.5571208 24.3824324,14.7011042 L25.0756216,14.7011042 C24.8491892,20.5135667 20.0782162,25.1069542 14.2734595,25.1011042 Z" id="Shape" fill-rule="nonzero"></path>
                <rect id="Rectangle" x="19.8950811" y="15.5677708" width="1" height="1"></rect>
                <rect id="Rectangle" x="18.5977838" y="19.9011042" width="1" height="1"></rect>
                <rect id="Rectangle" x="19.8950811" y="18.1677708" width="1" height="1"></rect>
            </g>
        </g>
    </g>
</svg>
