<?xml version="1.0" encoding="UTF-8"?>
<svg width="23px" height="28px" viewBox="0 0 23 28" version="1.1" xmlns="http://www.w3.org/2000/svg" xmlns:xlink="http://www.w3.org/1999/xlink">
    <!-- Generator: Sketch 52.5 (67469) - http://www.bohemiancoding.com/sketch -->
    <title>lemonade</title>
    <desc>Created with Sketch.</desc>
    <g id="Symbols" stroke="none" stroke-width="1" fill="none" fill-rule="evenodd">
        <g id="lemonade" transform="translate(-7.000000, -3.000000)" fill="#FFFFFF">
            <g transform="translate(7.000000, 3.000000)">
                <path d="M15.3708148,28 L4.71159259,28 C4.49522222,28 4.31292593,27.8387879 4.28822222,27.6241212 L2.08277778,8.40169697 C2.06914815,8.28121212 2.10748148,8.16157576 2.18840741,8.07078788 C2.26933333,7.98 2.38433333,7.92909091 2.50614815,7.92909091 L17.5762593,7.92909091 C17.6980741,7.92909091 17.8130741,7.98084848 17.894,8.07078788 C17.9749259,8.16072727 18.0132593,8.28121212 17.9996296,8.40169697 L15.7941852,27.6232727 C15.7694815,27.8387879 15.5871852,28 15.3708148,28 Z M5.09151852,27.1515152 L14.9908889,27.1515152 L17.0992222,8.77842424 L2.98318519,8.77842424 L5.09151852,27.1515152 Z" id="Shape" fill-rule="nonzero"></path>
                <path d="M17.0966667,12.9606061 L3.05048148,12.9606061 C2.81537037,12.9606061 2.62455556,12.7705455 2.62455556,12.5363636 C2.62455556,12.3021818 2.81537037,12.1121212 3.05048148,12.1121212 L17.0966667,12.1121212 C17.3317778,12.1121212 17.5225926,12.3021818 17.5225926,12.5363636 C17.5225926,12.7705455 17.3317778,12.9606061 17.0966667,12.9606061 Z" id="Path"></path>
                <path d="M9.47344444,18.9670303 L6.84122222,18.9670303 C6.60611111,18.9670303 6.4152963,18.7769697 6.4152963,18.5427879 L6.4152963,15.9218182 C6.4152963,15.6876364 6.60611111,15.4975758 6.84122222,15.4975758 L9.47344444,15.4975758 C9.70855556,15.4975758 9.89937037,15.6876364 9.89937037,15.9218182 L9.89937037,18.5427879 C9.89937037,18.7778182 9.70855556,18.9670303 9.47344444,18.9670303 Z M7.26714815,18.1185455 L9.04751852,18.1185455 L9.04751852,16.3460606 L7.26714815,16.3460606 L7.26714815,18.1185455 Z" id="Shape" fill-rule="nonzero"></path>
                <path d="M12.5443704,24.2963636 C12.4685556,24.2963636 12.3918889,24.2768485 12.3228889,24.2344242 L10.0748519,22.8717576 C9.87381481,22.7495758 9.80992593,22.4890909 9.93259259,22.2888485 L11.3006667,20.049697 C11.4233333,19.8486061 11.6848519,19.7858182 11.8858889,19.908 L14.1339259,21.2706667 C14.334963,21.3928485 14.3988519,21.6533333 14.2761852,21.8535758 L12.9081111,24.0927273 C12.828037,24.2242424 12.6874815,24.2963636 12.5443704,24.2963636 Z M10.8824074,22.3669091 L12.4021111,23.2883636 L13.3272222,21.7746667 L11.8075185,20.8532121 L10.8824074,22.3669091 Z" id="Shape" fill-rule="nonzero"></path>
                <path d="M17.5992593,13.4900606 C17.4314444,13.4900606 17.2644815,13.4824242 17.1000741,13.468 C16.8666667,13.4459394 16.6937407,13.2389091 16.7158889,13.0055758 C16.738037,12.7730909 16.9373704,12.6118788 17.1801481,12.6229091 C17.3181481,12.6364848 17.4578519,12.6415758 17.5992593,12.6415758 C20.050037,12.6415758 22.0442222,10.6561212 22.0442222,8.2150303 C22.0442222,5.77393939 20.050037,3.78763636 17.5992593,3.78763636 C15.1484815,3.78763636 13.1551481,5.77393939 13.1551481,8.2150303 C13.1551481,8.44921212 12.9643333,8.63927273 12.7292222,8.63927273 C12.4941111,8.63927273 12.3032963,8.44921212 12.3032963,8.2150303 C12.3032963,5.30557576 14.6791111,2.93915152 17.5992593,2.93915152 C20.5202593,2.93915152 22.8960741,5.30557576 22.8960741,8.2150303 C22.8952222,11.1236364 20.5194074,13.4900606 17.5992593,13.4900606 Z" id="Path"></path>
                <path d="M6.84037037,8.64012121 C6.63762963,8.64012121 6.45703704,8.49418182 6.42125926,8.288 L5.13411111,0.848484848 L0.530703704,0.848484848 C0.295592593,0.848484848 0.104777778,0.658424242 0.104777778,0.424242424 C0.104777778,0.190060606 0.294740741,0 0.530703704,0 L5.49274074,0 C5.69974074,0 5.87692593,0.148484848 5.9127037,0.352121212 L7.26118519,8.14375758 C7.30122222,8.37454545 7.14533333,8.59430303 6.91362963,8.63418182 C6.88892593,8.63842424 6.86422222,8.64012121 6.84037037,8.64012121 Z" id="Path"></path>
                <path d="M17.5762593,8.77842424 C17.3411481,8.77842424 17.1503333,8.58836364 17.1503333,8.35418182 L17.1503333,3.36424242 C17.1503333,3.13006061 17.3411481,2.94 17.5762593,2.94 C17.8113704,2.94 18.0021852,3.13006061 18.0021852,3.36424242 L18.0021852,8.35418182 C18.0021852,8.58836364 17.8122222,8.77842424 17.5762593,8.77842424 Z" id="Path"></path>
                <path d="M21.0296667,12.0569697 C20.9206296,12.0569697 20.8115926,12.0153939 20.7281111,11.9330909 L13.8681481,5.09854545 C13.702037,4.93309091 13.702037,4.66412121 13.8681481,4.49866667 C14.0342593,4.33321212 14.3042963,4.33321212 14.4704074,4.49866667 L21.3312222,11.3332121 C21.4973333,11.4986667 21.4973333,11.7676364 21.3312222,11.9330909 C21.2477407,12.0153939 21.1387037,12.0569697 21.0296667,12.0569697 Z" id="Path"></path>
                <path d="M17.5762593,8.77842424 C17.4672222,8.77842424 17.3581852,8.73684848 17.2747037,8.65454545 C17.1085926,8.48909091 17.1085926,8.22012121 17.2747037,8.05466667 L20.7485556,4.59454545 C20.9146667,4.42909091 21.1847037,4.42909091 21.3508148,4.59454545 C21.5169259,4.76 21.5169259,5.0289697 21.3508148,5.19442424 L17.876963,8.65454545 C17.7943333,8.73684848 17.6852963,8.77842424 17.5762593,8.77842424 Z" id="Path"></path>
                <path d="M22.4692963,8.64012121 L17.5762593,8.64012121 C17.3411481,8.64012121 17.1503333,8.45006061 17.1503333,8.21587879 C17.1503333,7.98169697 17.3411481,7.79163636 17.5762593,7.79163636 L22.4692963,7.79163636 C22.7044074,7.79163636 22.8952222,7.98169697 22.8952222,8.21587879 C22.8952222,8.45006061 22.7052593,8.64012121 22.4692963,8.64012121 Z" id="Path"></path>
            </g>
        </g>
    </g>
</svg>
