<?xml version="1.0" encoding="UTF-8"?>
<svg width="28px" height="22px" viewBox="0 0 28 22" version="1.1" xmlns="http://www.w3.org/2000/svg" xmlns:xlink="http://www.w3.org/1999/xlink">
    <!-- Generator: Sketch 52.5 (67469) - http://www.bohemiancoding.com/sketch -->
    <title>meat</title>
    <desc>Created with Sketch.</desc>
    <g id="Symbols" stroke="none" stroke-width="1" fill="none" fill-rule="evenodd">
        <g id="meat" transform="translate(-5.000000, -6.000000)" fill="#FFFFFF">
            <g transform="translate(5.000000, 6.000000)">
                <path d="M25.6192891,3.83284 C24.3425,2.809455 22.5403828,1.971585 20.2629766,1.342605 C15.883,0.132935 10.9437891,0.002365 9.02349219,0.002365 C4.04791406,0.002365 0,4.073465 0,9.077475 L0,12.922525 C0,17.92659 4.04791406,21.997635 9.02349219,21.997635 C11.3177969,21.997635 13.0408359,21.274825 14.8650469,20.509555 C16.7515469,19.71816 18.7021953,18.89987 21.4456484,18.89987 C25.0597266,18.89987 28,15.94274 28,12.308065 L28,8.463015 C28,6.65687 27.1989922,5.09905 25.6192891,3.83284 Z M25.1587656,13.23531 C25.3658125,13.456575 25.7119297,13.46697 25.9318281,13.258795 C26.3027187,12.907565 26.6289844,12.51624 26.90625,12.094885 L26.90625,12.308065 C26.90625,15.33631 24.4566328,17.79987 21.4456484,17.79987 C18.4832266,17.79987 16.4298203,18.66128 14.4440078,19.49431 C12.7237031,20.215965 11.0988281,20.897635 9.02349219,20.897635 C4.82239844,20.897635 1.37440625,17.59472 1.11059375,13.435345 C2.64621875,16.24436 5.61733594,18.152475 9.02349219,18.152475 C11.3177969,18.152475 13.0408359,17.429665 14.8650469,16.664395 C16.7515469,15.873 18.7021953,15.05471 21.4456484,15.05471 C21.6494687,15.05471 21.8553672,15.04503 22.0577109,15.026 C22.3584375,14.997675 22.579375,14.72955 22.5512109,14.427105 C22.5230469,14.124715 22.2561172,13.90257 21.9557188,13.93084 C21.7871172,13.94668 21.6155625,13.954765 21.4456484,13.954765 C18.4832266,13.954765 16.4298203,14.816175 14.4440078,15.649205 C12.7237031,16.37086 11.0988281,17.05253 9.02349219,17.05253 C4.65100781,17.05253 1.09375,13.474945 1.09375,9.07753 C1.09375,4.68006 4.65100781,1.10242 9.02349219,1.10242 C10.8994375,1.10242 15.7216719,1.229195 19.9733516,2.40339 C24.5736641,3.673945 26.90625,5.712685 26.90625,8.463015 C26.90625,9.96424 26.2777812,11.42031 25.1820625,12.45783 C24.9621641,12.66606 24.9517188,13.014155 25.1587656,13.23531 Z" id="Shape" fill-rule="nonzero"></path>
                <path d="M24.7090703,13.586375 C24.5804453,13.31154 24.2545625,13.193565 23.9813984,13.322925 C23.9774609,13.32474 23.9722656,13.327325 23.9683828,13.32925 C23.6982813,13.4651 23.5887969,13.795485 23.7238203,14.06713 C23.8196328,14.25985 24.0127891,14.37128 24.2134375,14.37128 C24.2944844,14.37128 24.3767344,14.353075 24.4542813,14.31474 C24.7224141,14.183125 24.8365469,13.85879 24.7090703,13.586375 Z" id="Path"></path>
                <path d="M12.9712188,2.35741 L12.9430547,2.3551 C12.6415078,2.33145 12.3784063,2.55684 12.3543984,2.85967 C12.3303906,3.162445 12.5549922,3.42749 12.8560469,3.45169 L12.8839922,3.45389 C12.8988125,3.4551 12.9135234,3.455705 12.9281797,3.455705 C13.2104219,3.455705 13.4497891,3.237355 13.4727578,2.94954 C13.4968203,2.64671 13.2722734,2.381665 12.9712188,2.35741 Z" id="Path"></path>
                <path d="M25.4710313,6.981315 C24.9285859,5.903095 23.7216328,4.971285 21.8835859,4.211845 C20.3963594,3.59733 18.7698984,3.20914 17.6673438,2.991615 C17.0065547,2.86132 16.3141016,2.74494 15.6091797,2.64583 C15.3102031,2.60337 15.0337031,2.81347 14.9918125,3.114375 C14.9499766,3.415225 15.1585547,3.69314 15.4576953,3.735215 C16.1429297,3.831575 16.8155313,3.9446 17.4568516,4.0711 C21.2133359,4.812005 23.7786719,6.05374 24.4950781,7.4778 C24.6455781,7.777055 24.71875,8.0993 24.71875,8.46296 C24.71875,10.278015 23.2504453,11.75471 21.4456484,11.75471 C19.6208359,11.75471 17.8487969,12.054625 16.02825,12.67167 C15.2441406,12.937485 14.4827813,13.25522 13.7465234,13.56256 C13.2595312,13.765785 12.7559687,13.975995 12.256125,14.16646 C10.9947578,14.64727 10.0279375,14.85242 9.02349219,14.85242 C5.85719531,14.85242 3.28119531,12.261755 3.28119531,9.07742 C3.28119531,5.89303 5.85719531,3.30231 9.02349219,3.30231 C9.6411875,3.30231 10.2682891,3.31408 10.8872422,3.33729 C10.9922969,3.341195 11.0974609,3.34543 11.2026797,3.350105 C11.5041719,3.363855 11.7598359,3.128345 11.773125,2.824855 C11.7864687,2.52142 11.552625,2.264515 11.2509141,2.25115 C11.1431797,2.246365 11.0354453,2.24202 10.9279297,2.238005 C10.2954688,2.2143 9.65469531,2.20231 9.0234375,2.20231 C5.25404688,2.20231 2.18739063,5.286435 2.18739063,9.07742 C2.18739063,12.868295 5.25399219,15.95242 9.0234375,15.95242 C10.1683203,15.95242 11.2510234,15.72593 12.6436953,15.19507 C13.1594531,14.9985 13.671,14.78499 14.1657578,14.578465 C14.8850625,14.278275 15.6288672,13.9678 16.3775391,13.71403 C18.0836797,13.13576 19.7414766,12.854655 21.4456484,12.854655 C23.8535391,12.854765 25.8125,10.88461 25.8125,8.463015 C25.8125,7.922805 25.7007734,7.438145 25.4710313,6.981315 Z" id="Path"></path>
                <path d="M9.54723438,4.3901 C8.01839063,4.3901 6.77452344,5.524475 6.77452344,6.918835 C6.77452344,8.313195 8.01839063,9.44757 9.54723438,9.44757 C11.0761328,9.44757 12.3199453,8.313195 12.3199453,6.918835 C12.3199453,5.524475 11.0761328,4.3901 9.54723438,4.3901 Z M9.54723438,8.347515 C8.62142969,8.347515 7.86827344,7.7066 7.86827344,6.91878 C7.86827344,6.131015 8.62142969,5.490045 9.54723438,5.490045 C10.4730391,5.490045 11.2261953,6.13096 11.2261953,6.91878 C11.2261953,7.7066 10.4730391,8.347515 9.54723438,8.347515 Z" id="Shape" fill-rule="nonzero"></path>
            </g>
        </g>
    </g>
</svg>
